<?xml version="1.0" encoding="UTF-8" standalone="no"?>
<!-- Created with Inkscape (http://www.inkscape.org/) -->
<svg
   xmlns:dc="http://purl.org/dc/elements/1.1/"
   xmlns:cc="http://creativecommons.org/ns#"
   xmlns:rdf="http://www.w3.org/1999/02/22-rdf-syntax-ns#"
   xmlns:svg="http://www.w3.org/2000/svg"
   xmlns="http://www.w3.org/2000/svg"
   xmlns:sodipodi="http://sodipodi.sourceforge.net/DTD/sodipodi-0.dtd"
   xmlns:inkscape="http://www.inkscape.org/namespaces/inkscape"
   id="svg2"
   sodipodi:version="0.32"
   inkscape:version="0.46"
   width="495"
   height="180"
   xml:space="preserve"
   sodipodi:docname="results:general-extraction.svg"
   inkscape:output_extension="org.inkscape.output.svg.inkscape"><metadata
     id="metadata7"><rdf:RDF><cc:Work
         rdf:about=""><dc:format>image/svg+xml</dc:format><dc:type
           rdf:resource="http://purl.org/dc/dcmitype/StillImage" /></cc:Work></rdf:RDF></metadata><defs
     id="defs5"><inkscape:perspective
       sodipodi:type="inkscape:persp3d"
       inkscape:vp_x="0 : 526.18109 : 1"
       inkscape:vp_y="0 : 1000 : 0"
       inkscape:vp_z="744.09448 : 526.18109 : 1"
       inkscape:persp3d-origin="372.04724 : 350.78739 : 1"
       id="perspective9" /><clipPath
       clipPathUnits="userSpaceOnUse"
       id="clipPath21"><path
         d="M 19.8,51.84 L 124.62353,51.84 L 124.62353,79.2 L 19.8,79.2 L 19.8,51.84 z"
         id="path23" /></clipPath><clipPath
       clipPathUnits="userSpaceOnUse"
       id="clipPath31"><path
         d="M 19.8,51.84 L 124.62353,51.84 L 124.62353,79.2 L 19.8,79.2 L 19.8,51.84 z"
         id="path33" /></clipPath><clipPath
       clipPathUnits="userSpaceOnUse"
       id="clipPath41"><path
         d="M 19.8,51.84 L 124.62353,51.84 L 124.62353,79.2 L 19.8,79.2 L 19.8,51.84 z"
         id="path43" /></clipPath><clipPath
       clipPathUnits="userSpaceOnUse"
       id="clipPath89"><path
         d="M 145.58824,51.84 L 250.41176,51.84 L 250.41176,79.2 L 145.58824,79.2 L 145.58824,51.84 z"
         id="path91" /></clipPath><clipPath
       clipPathUnits="userSpaceOnUse"
       id="clipPath99"><path
         d="M 145.58824,51.84 L 250.41176,51.84 L 250.41176,79.2 L 145.58824,79.2 L 145.58824,51.84 z"
         id="path101" /></clipPath><clipPath
       clipPathUnits="userSpaceOnUse"
       id="clipPath109"><path
         d="M 145.58824,51.84 L 250.41176,51.84 L 250.41176,79.2 L 145.58824,79.2 L 145.58824,51.84 z"
         id="path111" /></clipPath><clipPath
       clipPathUnits="userSpaceOnUse"
       id="clipPath157"><path
         d="M 271.37647,51.84 L 376.2,51.84 L 376.2,79.2 L 271.37647,79.2 L 271.37647,51.84 z"
         id="path159" /></clipPath><clipPath
       clipPathUnits="userSpaceOnUse"
       id="clipPath167"><path
         d="M 271.37647,51.84 L 376.2,51.84 L 376.2,79.2 L 271.37647,79.2 L 271.37647,51.84 z"
         id="path169" /></clipPath><clipPath
       clipPathUnits="userSpaceOnUse"
       id="clipPath177"><path
         d="M 271.37647,51.84 L 376.2,51.84 L 376.2,79.2 L 271.37647,79.2 L 271.37647,51.84 z"
         id="path179" /></clipPath></defs><sodipodi:namedview
     inkscape:window-height="1025"
     inkscape:window-width="1680"
     inkscape:pageshadow="2"
     inkscape:pageopacity="0.0"
     guidetolerance="10.0"
     gridtolerance="10.0"
     objecttolerance="10.0"
     borderopacity="1.0"
     bordercolor="#666666"
     pagecolor="#ffffff"
     id="base"
     showgrid="false"
     inkscape:zoom="2.3515152"
     inkscape:cx="186.79482"
     inkscape:cy="104.72713"
     inkscape:window-x="1280"
     inkscape:window-y="0"
     inkscape:current-layer="g11" /><g
     id="g11"
     inkscape:groupmode="layer"
     inkscape:label="results:general-extraction"
     transform="matrix(1.25,0,0,-1.25,0,180)"><path
       d="M 0,0 L 396,0 L 396,144 L 0,144 L 0,0"
       style="fill:#ffffff;fill-opacity:1;fill-rule:nonzero;stroke:#ffffff;stroke-opacity:1;stroke-width:1;stroke-linecap:square;stroke-linejoin:round;stroke-miterlimit:10;stroke-dasharray:none"
       id="path13" /><path
       d="M 19.8,51.84 L 124.62353,51.84 L 124.62353,79.2 L 19.8,79.2 L 19.8,51.84"
       style="fill:#ffffff;fill-opacity:1;fill-rule:nonzero;stroke:none"
       id="path15" /><g
       id="g17"><g
         id="g19"
         clip-path="url(#clipPath21)"><path
           d="M 19.8,51.84 L 44.758482,51.84 L 44.758482,79.2 L 19.8,79.2 L 19.8,51.84"
           style="fill:#333333;fill-opacity:1;fill-rule:nonzero;stroke:none"
           id="path25" /></g></g><g
       id="g27"><g
         id="g29"
         clip-path="url(#clipPath31)"><path
           d="M 44.758482,51.84 L 54.737682,51.84 L 54.737682,79.2 L 44.758482,79.2 L 44.758482,51.84"
           style="fill:#666666;fill-opacity:1;fill-rule:nonzero;stroke:none"
           id="path35" /></g></g><g
       id="g37"><g
         id="g39"
         clip-path="url(#clipPath41)"><path
           d="M 54.737682,51.84 L 124.62353,51.84 L 124.62353,79.2 L 54.737682,79.2 L 54.737682,51.84"
           style="fill:#dddddd;fill-opacity:1;fill-rule:nonzero;stroke:none"
           id="path45" /></g></g><path
       d="M 32.279241,51.84 L 32.279241,55.84"
       style="fill:none;stroke:#000000;stroke-opacity:1;stroke-width:0.5;stroke-linecap:butt;stroke-linejoin:round;stroke-miterlimit:10;stroke-dasharray:none"
       id="path47" /><path
       d="M 32.279241,79.2 L 32.279241,75.2"
       style="fill:none;stroke:#000000;stroke-opacity:1;stroke-width:0.5;stroke-linecap:butt;stroke-linejoin:round;stroke-miterlimit:10;stroke-dasharray:none"
       id="path49" /><text
       transform="matrix(1,0,0,-1,17.263616,40.34)"
       id="text51"><tspan
         style="fill:#000000;fill-opacity:1;fill-rule:nonzero;stroke:none;font-family:Cmr10;font-variant:normal;font-weight:normal;font-size:10;writing-mode:lr;-inkscape-font-specification:Cmr10"
         x="0 5 10 12.77 17.77 22.77"
         y="0"
         sodipodi:role="line"
         id="tspan53">23.81%</tspan></text>
<path
       d="M 49.748082,51.84 L 49.748082,55.84"
       style="fill:none;stroke:#000000;stroke-opacity:1;stroke-width:0.5;stroke-linecap:butt;stroke-linejoin:round;stroke-miterlimit:10;stroke-dasharray:none"
       id="path55" /><path
       d="M 49.748082,79.2 L 49.748082,75.2"
       style="fill:none;stroke:#000000;stroke-opacity:1;stroke-width:0.5;stroke-linecap:butt;stroke-linejoin:round;stroke-miterlimit:10;stroke-dasharray:none"
       id="path57" /><path
       d="M 89.680606,51.84 L 89.680606,55.84"
       style="fill:none;stroke:#000000;stroke-opacity:1;stroke-width:0.5;stroke-linecap:butt;stroke-linejoin:round;stroke-miterlimit:10;stroke-dasharray:none"
       id="path63" /><path
       d="M 89.680606,79.2 L 89.680606,75.2"
       style="fill:none;stroke:#000000;stroke-opacity:1;stroke-width:0.5;stroke-linecap:butt;stroke-linejoin:round;stroke-miterlimit:10;stroke-dasharray:none"
       id="path65" /><text
       transform="matrix(1,0,0,-1,74.625918,40.34)"
       id="text67"><tspan
         style="fill:#000000;fill-opacity:1;fill-rule:nonzero;stroke:none;font-family:Cmr10;font-variant:normal;font-weight:normal;font-size:10;writing-mode:lr;-inkscape-font-specification:Cmr10"
         x="0 5 10 12.77 17.77 22.77"
         y="0"
         sodipodi:role="line"
         id="tspan69">66.67%</tspan></text>
<path
       d="M 19.8,79.2 L 124.62353,79.2"
       style="fill:none;stroke:#000000;stroke-opacity:1;stroke-width:1;stroke-linecap:square;stroke-linejoin:round;stroke-miterlimit:10;stroke-dasharray:none"
       id="path71" /><path
       d="M 124.62353,51.84 L 124.62353,79.2"
       style="fill:none;stroke:#000000;stroke-opacity:1;stroke-width:1;stroke-linecap:square;stroke-linejoin:round;stroke-miterlimit:10;stroke-dasharray:none"
       id="path73" /><path
       d="M 19.8,51.84 L 124.62353,51.84"
       style="fill:none;stroke:#000000;stroke-opacity:1;stroke-width:1;stroke-linecap:square;stroke-linejoin:round;stroke-miterlimit:10;stroke-dasharray:none"
       id="path75" /><path
       d="M 19.8,51.84 L 19.8,79.2"
       style="fill:none;stroke:#000000;stroke-opacity:1;stroke-width:1;stroke-linecap:square;stroke-linejoin:round;stroke-miterlimit:10;stroke-dasharray:none"
       id="path77" /><path
       d="M 145.58824,51.84 L 250.41176,51.84 L 250.41176,79.2 L 145.58824,79.2 L 145.58824,51.84"
       style="fill:#ffffff;fill-opacity:1;fill-rule:nonzero;stroke:none"
       id="path83" /><g
       id="g85"><g
         id="g87"
         clip-path="url(#clipPath89)"><path
           d="M 145.58824,51.84 L 185.526,51.84 L 185.526,79.2 L 145.58824,79.2 L 145.58824,51.84"
           style="fill:#333333;fill-opacity:1;fill-rule:nonzero;stroke:none"
           id="path93" /></g></g><g
       id="g95"><g
         id="g97"
         clip-path="url(#clipPath99)"><path
           d="M 185.526,51.84 L 225.46376,51.84 L 225.46376,79.2 L 185.526,79.2 L 185.526,51.84"
           style="fill:#666666;fill-opacity:1;fill-rule:nonzero;stroke:none"
           id="path103" /></g></g><g
       id="g105"><g
         id="g107"
         clip-path="url(#clipPath109)"><path
           d="M 225.46376,51.84 L 250.41176,51.84 L 250.41176,79.2 L 225.46376,79.2 L 225.46376,51.84"
           style="fill:#dddddd;fill-opacity:1;fill-rule:nonzero;stroke:none"
           id="path113" /></g></g><path
       d="M 165.55712,51.84 L 165.55712,55.84"
       style="fill:none;stroke:#000000;stroke-opacity:1;stroke-width:0.5;stroke-linecap:butt;stroke-linejoin:round;stroke-miterlimit:10;stroke-dasharray:none"
       id="path115" /><path
       d="M 165.55712,79.2 L 165.55712,75.2"
       style="fill:none;stroke:#000000;stroke-opacity:1;stroke-width:0.5;stroke-linecap:butt;stroke-linejoin:round;stroke-miterlimit:10;stroke-dasharray:none"
       id="path117" /><text
       transform="matrix(1,0,0,-1,153.00243,40.34)"
       id="text119"><tspan
         style="fill:#000000;fill-opacity:1;fill-rule:nonzero;stroke:none;font-family:Cmr10;font-variant:normal;font-weight:normal;font-size:10;writing-mode:lr;-inkscape-font-specification:Cmr10"
         x="0 5 10 12.77 17.77"
         y="0"
         sodipodi:role="line"
         id="tspan121">38.1%</tspan></text>
<path
       d="M 205.49488,51.84 L 205.49488,55.84"
       style="fill:none;stroke:#000000;stroke-opacity:1;stroke-width:0.5;stroke-linecap:butt;stroke-linejoin:round;stroke-miterlimit:10;stroke-dasharray:none"
       id="path123" /><path
       d="M 205.49488,79.2 L 205.49488,75.2"
       style="fill:none;stroke:#000000;stroke-opacity:1;stroke-width:0.5;stroke-linecap:butt;stroke-linejoin:round;stroke-miterlimit:10;stroke-dasharray:none"
       id="path125" /><text
       transform="matrix(1,0,0,-1,192.94019,40.34)"
       id="text127"><tspan
         style="fill:#000000;fill-opacity:1;fill-rule:nonzero;stroke:none;font-family:Cmr10;font-variant:normal;font-weight:normal;font-size:10;writing-mode:lr;-inkscape-font-specification:Cmr10"
         x="0 5 10 12.77 17.77"
         y="0"
         sodipodi:role="line"
         id="tspan129">38.1%</tspan></text>
<path
       d="M 237.93776,51.84 L 237.93776,55.84"
       style="fill:none;stroke:#000000;stroke-opacity:1;stroke-width:0.5;stroke-linecap:butt;stroke-linejoin:round;stroke-miterlimit:10;stroke-dasharray:none"
       id="path131" /><path
       d="M 237.93776,79.2 L 237.93776,75.2"
       style="fill:none;stroke:#000000;stroke-opacity:1;stroke-width:0.5;stroke-linecap:butt;stroke-linejoin:round;stroke-miterlimit:10;stroke-dasharray:none"
       id="path133" /><text
       transform="matrix(1,0,0,-1,225.42214,40.34)"
       id="text135"><tspan
         style="fill:#000000;fill-opacity:1;fill-rule:nonzero;stroke:none;font-family:Cmr10;font-variant:normal;font-weight:normal;font-size:10;writing-mode:lr;-inkscape-font-specification:Cmr10"
         x="0 5 10 12.77 17.77"
         y="0"
         sodipodi:role="line"
         id="tspan137">23.8%</tspan></text>
<path
       d="M 145.58824,79.2 L 250.41176,79.2"
       style="fill:none;stroke:#000000;stroke-opacity:1;stroke-width:1;stroke-linecap:square;stroke-linejoin:round;stroke-miterlimit:10;stroke-dasharray:none"
       id="path139" /><path
       d="M 250.41176,51.84 L 250.41176,79.2"
       style="fill:none;stroke:#000000;stroke-opacity:1;stroke-width:1;stroke-linecap:square;stroke-linejoin:round;stroke-miterlimit:10;stroke-dasharray:none"
       id="path141" /><path
       d="M 145.58824,51.84 L 250.41176,51.84"
       style="fill:none;stroke:#000000;stroke-opacity:1;stroke-width:1;stroke-linecap:square;stroke-linejoin:round;stroke-miterlimit:10;stroke-dasharray:none"
       id="path143" /><path
       d="M 145.58824,51.84 L 145.58824,79.2"
       style="fill:none;stroke:#000000;stroke-opacity:1;stroke-width:1;stroke-linecap:square;stroke-linejoin:round;stroke-miterlimit:10;stroke-dasharray:none"
       id="path145" /><path
       d="M 271.37647,51.84 L 376.2,51.84 L 376.2,79.2 L 271.37647,79.2 L 271.37647,51.84"
       style="fill:#ffffff;fill-opacity:1;fill-rule:nonzero;stroke:none"
       id="path151" /><g
       id="g153"><g
         id="g155"
         clip-path="url(#clipPath157)"><path
           d="M 271.37647,51.84 L 331.27264,51.84 L 331.27264,79.2 L 271.37647,79.2 L 271.37647,51.84"
           style="fill:#333333;fill-opacity:1;fill-rule:nonzero;stroke:none"
           id="path161" /></g></g><g
       id="g163"><g
         id="g165"
         clip-path="url(#clipPath167)"><path
           d="M 331.27264,51.84 L 351.24152,51.84 L 351.24152,79.2 L 331.27264,79.2 L 331.27264,51.84"
           style="fill:#666666;fill-opacity:1;fill-rule:nonzero;stroke:none"
           id="path171" /></g></g><g
       id="g173"><g
         id="g175"
         clip-path="url(#clipPath177)"><path
           d="M 351.24152,51.84 L 376.2,51.84 L 376.2,79.2 L 351.24152,79.2 L 351.24152,51.84"
           style="fill:#dddddd;fill-opacity:1;fill-rule:nonzero;stroke:none"
           id="path181" /></g></g><path
       d="M 301.32455,51.84 L 301.32455,55.84"
       style="fill:none;stroke:#000000;stroke-opacity:1;stroke-width:0.5;stroke-linecap:butt;stroke-linejoin:round;stroke-miterlimit:10;stroke-dasharray:none"
       id="path183" /><path
       d="M 301.32455,79.2 L 301.32455,75.2"
       style="fill:none;stroke:#000000;stroke-opacity:1;stroke-width:0.5;stroke-linecap:butt;stroke-linejoin:round;stroke-miterlimit:10;stroke-dasharray:none"
       id="path185" /><text
       transform="matrix(1,0,0,-1,286.30893,40.34)"
       id="text187"><tspan
         style="fill:#000000;fill-opacity:1;fill-rule:nonzero;stroke:none;font-family:Cmr10;font-variant:normal;font-weight:normal;font-size:10;writing-mode:lr;-inkscape-font-specification:Cmr10"
         x="0 5 10 12.77 17.77 22.77"
         y="0"
         sodipodi:role="line"
         id="tspan189">57.14%</tspan></text>
<path
       d="M 341.25708,51.84 L 341.25708,55.84"
       style="fill:none;stroke:#000000;stroke-opacity:1;stroke-width:0.5;stroke-linecap:butt;stroke-linejoin:round;stroke-miterlimit:10;stroke-dasharray:none"
       id="path191" /><path
       d="M 341.25708,79.2 L 341.25708,75.2"
       style="fill:none;stroke:#000000;stroke-opacity:1;stroke-width:0.5;stroke-linecap:butt;stroke-linejoin:round;stroke-miterlimit:10;stroke-dasharray:none"
       id="path193" /><text
       transform="matrix(1,0,0,-1,326.42895,40.34)"
       id="text195"><tspan
         style="fill:#000000;fill-opacity:1;fill-rule:nonzero;stroke:none;font-family:Cmr10;font-variant:normal;font-weight:normal;font-size:10;writing-mode:lr;-inkscape-font-specification:Cmr10"
         x="0 5 10 12.77 17.77 22.77"
         y="0"
         sodipodi:role="line"
         id="tspan197">19.05%</tspan></text>
<path
       d="M 363.72076,51.84 L 363.72076,55.84"
       style="fill:none;stroke:#000000;stroke-opacity:1;stroke-width:0.5;stroke-linecap:butt;stroke-linejoin:round;stroke-miterlimit:10;stroke-dasharray:none"
       id="path199" /><path
       d="M 363.72076,79.2 L 363.72076,75.2"
       style="fill:none;stroke:#000000;stroke-opacity:1;stroke-width:0.5;stroke-linecap:butt;stroke-linejoin:round;stroke-miterlimit:10;stroke-dasharray:none"
       id="path201" /><path
       d="M 271.37647,79.2 L 376.2,79.2"
       style="fill:none;stroke:#000000;stroke-opacity:1;stroke-width:1;stroke-linecap:square;stroke-linejoin:round;stroke-miterlimit:10;stroke-dasharray:none"
       id="path207" /><path
       d="M 376.2,51.84 L 376.2,79.2"
       style="fill:none;stroke:#000000;stroke-opacity:1;stroke-width:1;stroke-linecap:square;stroke-linejoin:round;stroke-miterlimit:10;stroke-dasharray:none"
       id="path209" /><path
       d="M 271.37647,51.84 L 376.2,51.84"
       style="fill:none;stroke:#000000;stroke-opacity:1;stroke-width:1;stroke-linecap:square;stroke-linejoin:round;stroke-miterlimit:10;stroke-dasharray:none"
       id="path211" /><path
       d="M 271.37647,51.84 L 271.37647,79.2"
       style="fill:none;stroke:#000000;stroke-opacity:1;stroke-width:1;stroke-linecap:square;stroke-linejoin:round;stroke-miterlimit:10;stroke-dasharray:none"
       id="path213" /><text
       transform="matrix(1,0,0,-1,105.92969,129.18875)"
       id="text219"><tspan
         style="fill:#000000;fill-opacity:1;fill-rule:nonzero;stroke:none;font-family:Cmr10;font-variant:normal;font-weight:normal;font-size:12;writing-mode:lr;-inkscape-font-specification:Cmr10"
         x="0 8.16 13.488 18.18 23.508 28.836 35.496 40.152 46.152 50.808 56.808 62.136 66.132 72.792 76.116 81.444 87.768 92.424 97.116 103.116 108.444 113.772 117.096 123.096 129.756 134.484 138.48 143.808 149.808 154.5 159.192 164.52 169.848 174.504 179.832"
         y="0"
         sodipodi:role="line"
         id="tspan221">Percentatge d’extraccions correctes</tspan></text>
<path
       d="M 21.69375,11.065625 L 45.69375,11.065625 L 45.69375,19.465625 L 21.69375,19.465625 L 21.69375,11.065625"
       style="fill:#333333;fill-opacity:1;fill-rule:nonzero;stroke:none"
       id="path223" /><text
       transform="matrix(1,0,0,-1,55.29375,11.065625)"
       id="text225"><tspan
         style="fill:#000000;fill-opacity:1;fill-rule:nonzero;stroke:none;font-family:Cmr10;font-variant:normal;font-weight:normal;font-size:12;writing-mode:lr;-inkscape-font-specification:Cmr10"
         x="0 8.664 14.664 19.356 24.048 29.376 34.704 39.36"
         y="0"
         sodipodi:role="line"
         id="tspan227">Correcte</tspan></text>
<path
       d="M 122.96563,11.065625 L 146.96562,11.065625 L 146.96562,19.465625 L 122.96563,19.465625 L 122.96563,11.065625"
       style="fill:#666666;fill-opacity:1;fill-rule:nonzero;stroke:none"
       id="path229" /><text
       transform="matrix(1,0,0,-1,156.56562,11.065625)"
       id="text231"><tspan
         style="fill:#000000;fill-opacity:1;fill-rule:nonzero;stroke:none;font-family:Cmr10;font-variant:normal;font-weight:normal;font-size:12;writing-mode:lr;-inkscape-font-specification:Cmr10"
         x="0 8.16 14.16 18.852 24.18 27.504 33.504 36.828 46.824 52.152 58.812 63.468 67.464 72.792 78.792 83.484 88.176 93.504 98.832 103.488"
         y="0"
         sodipodi:role="line"
         id="tspan233">Parcialment correcte</tspan></text>
<path
       d="M 289.03437,11.065625 L 313.03437,11.065625 L 313.03437,19.465625 L 289.03437,19.465625 L 289.03437,11.065625"
       style="fill:#dddddd;fill-opacity:1;fill-rule:nonzero;stroke:none"
       id="path235" /><text
       transform="matrix(1,0,0,-1,322.63437,11.065625)"
       id="text237"><tspan
         style="fill:#000000;fill-opacity:1;fill-rule:nonzero;stroke:none;font-family:Cmr10;font-variant:normal;font-weight:normal;font-size:12;writing-mode:lr;-inkscape-font-specification:Cmr10"
         x="0 4.332 10.992 16.32 22.32 27.012 31.704 37.032 42.36 47.016"
         y="0"
         sodipodi:role="line"
         id="tspan239">Incorrecte</tspan></text>
<text
       xml:space="preserve"
       style="font-size:9.60000038px;font-style:normal;font-variant:normal;font-weight:bold;font-stretch:normal;fill:#000000;fill-opacity:1;stroke:none;stroke-width:1px;stroke-linecap:butt;stroke-linejoin:miter;stroke-opacity:1;font-family:CMU Serif;-inkscape-font-specification:CMU Serif Medium"
       x="70.558952"
       y="-102.13758"
       id="text2612"
       transform="scale(1,-1)"><tspan
         sodipodi:role="line"
         id="tspan2614"
         x="70.558952"
         y="-102.13758"
         style="font-size:12px;text-align:center;text-anchor:middle">Sense</tspan><tspan
         sodipodi:role="line"
         x="70.558952"
         y="-87.116127"
         id="tspan2616"
         style="font-size:12px;font-style:italic;font-variant:normal;font-weight:bold;font-stretch:normal;text-align:center;text-anchor:middle;font-family:CMU Serif Extra;-inkscape-font-specification:CMU Serif Extra Bold Italic">Field Wrappers</tspan></text>
<text
       xml:space="preserve"
       style="font-size:9.60000038px;font-style:normal;font-variant:normal;font-weight:bold;font-stretch:normal;fill:#000000;fill-opacity:1;stroke:none;stroke-width:1px;stroke-linecap:butt;stroke-linejoin:miter;stroke-opacity:1;font-family:CMU Serif;-inkscape-font-specification:CMU Serif Medium"
       x="196.34718"
       y="-102.13758"
       id="text2618"
       transform="scale(1,-1)"><tspan
         sodipodi:role="line"
         id="tspan2620"
         x="196.34718"
         y="-102.13758"
         style="font-size:12px;text-align:center;text-anchor:middle">Amb</tspan><tspan
         sodipodi:role="line"
         x="196.34718"
         y="-87.116127"
         id="tspan2622"
         style="font-size:12px;font-style:italic;font-variant:normal;font-weight:bold;font-stretch:normal;text-align:center;text-anchor:middle;font-family:CMU Serif Extra;-inkscape-font-specification:CMU Serif Extra Bold Italic">Field Wrappers</tspan></text>
<text
       xml:space="preserve"
       style="font-size:9.60000038px;font-style:normal;font-variant:normal;font-weight:bold;font-stretch:normal;fill:#000000;fill-opacity:1;stroke:none;stroke-width:1px;stroke-linecap:butt;stroke-linejoin:miter;stroke-opacity:1;font-family:CMU Serif;-inkscape-font-specification:CMU Serif Medium"
       x="322.13544"
       y="-102.13758"
       id="text2624"
       transform="scale(1,-1)"><tspan
         sodipodi:role="line"
         x="322.13544"
         y="-102.13758"
         id="tspan2628"
         style="font-size:12px;font-style:italic;font-variant:normal;font-weight:bold;font-stretch:normal;text-align:center;text-anchor:middle;font-family:CMU Serif Extra;-inkscape-font-specification:CMU Serif Extra Bold Italic">Field Wrappers</tspan><tspan
         sodipodi:role="line"
         x="322.13544"
         y="-87.137581"
         style="font-size:12px;font-style:normal;font-variant:normal;font-weight:bold;font-stretch:normal;text-align:center;text-anchor:middle;font-family:CMU Serif;-inkscape-font-specification:CMU Serif Bold"
         id="tspan2632">Corregits</tspan></text>
</g></svg>