<?xml version="1.0" encoding="UTF-8" standalone="no"?>
<!-- Created with Inkscape (http://www.inkscape.org/) -->
<svg
   xmlns:dc="http://purl.org/dc/elements/1.1/"
   xmlns:cc="http://creativecommons.org/ns#"
   xmlns:rdf="http://www.w3.org/1999/02/22-rdf-syntax-ns#"
   xmlns:svg="http://www.w3.org/2000/svg"
   xmlns="http://www.w3.org/2000/svg"
   xmlns:sodipodi="http://sodipodi.sourceforge.net/DTD/sodipodi-0.dtd"
   xmlns:inkscape="http://www.inkscape.org/namespaces/inkscape"
   width="390.64157"
   height="104.48252"
   id="svg2836"
   sodipodi:version="0.32"
   inkscape:version="0.46"
   version="1.0"
   sodipodi:docname="results:extraction-acm.svg"
   inkscape:output_extension="org.inkscape.output.svg.inkscape">
  <defs
     id="defs2838">
    <inkscape:perspective
       sodipodi:type="inkscape:persp3d"
       inkscape:vp_x="0 : 526.18109 : 1"
       inkscape:vp_y="0 : 1000 : 0"
       inkscape:vp_z="744.09448 : 526.18109 : 1"
       inkscape:persp3d-origin="372.04724 : 350.78739 : 1"
       id="perspective2844" />
    <inkscape:perspective
       id="perspective2435"
       inkscape:persp3d-origin="372.04724 : 350.78739 : 1"
       inkscape:vp_z="744.09448 : 526.18109 : 1"
       inkscape:vp_y="0 : 1000 : 0"
       inkscape:vp_x="0 : 526.18109 : 1"
       sodipodi:type="inkscape:persp3d" />
    <inkscape:perspective
       id="perspective2719"
       inkscape:persp3d-origin="372.04724 : 350.78739 : 1"
       inkscape:vp_z="744.09448 : 526.18109 : 1"
       inkscape:vp_y="0 : 1000 : 0"
       inkscape:vp_x="0 : 526.18109 : 1"
       sodipodi:type="inkscape:persp3d" />
    <inkscape:perspective
       id="perspective4103"
       inkscape:persp3d-origin="372.04724 : 350.78739 : 1"
       inkscape:vp_z="744.09448 : 526.18109 : 1"
       inkscape:vp_y="0 : 1000 : 0"
       inkscape:vp_x="0 : 526.18109 : 1"
       sodipodi:type="inkscape:persp3d" />
  </defs>
  <sodipodi:namedview
     id="base"
     pagecolor="#ffffff"
     bordercolor="#666666"
     borderopacity="1.0"
     gridtolerance="10000"
     guidetolerance="10"
     objecttolerance="10"
     inkscape:pageopacity="0.0"
     inkscape:pageshadow="2"
     inkscape:zoom="2.8"
     inkscape:cx="355.96639"
     inkscape:cy="50.379503"
     inkscape:document-units="px"
     inkscape:current-layer="capa1"
     showgrid="false"
     units="in"
     inkscape:window-width="1680"
     inkscape:window-height="1025"
     inkscape:window-x="1280"
     inkscape:window-y="0" />
  <metadata
     id="metadata2841">
    <rdf:RDF>
      <cc:Work
         rdf:about="">
        <dc:format>image/svg+xml</dc:format>
        <dc:type
           rdf:resource="http://purl.org/dc/dcmitype/StillImage" />
      </cc:Work>
    </rdf:RDF>
  </metadata>
  <g
     inkscape:label="Capa 1"
     inkscape:groupmode="layer"
     id="capa1"
     transform="translate(-3.711636,68.164172)">
    <flowRoot
       xml:space="preserve"
       id="flowRoot4257"
       style="font-size:12px;font-style:normal;font-variant:normal;font-weight:bold;font-stretch:normal;fill:#000000;fill-opacity:1;stroke:none;stroke-width:1px;stroke-linecap:butt;stroke-linejoin:miter;stroke-opacity:1;font-family:cmr10;-inkscape-font-specification:cmr10 Medium"><flowRegion
         id="flowRegion4259"><rect
           id="rect4261"
           width="531.42859"
           height="127.14286"
           x="-378.57144"
           y="123.79076" /></flowRegion><flowPara
         id="flowPara4263" /></flowRoot>    <path
       style="fill:#aeaeae;fill-opacity:1;fill-rule:evenodd;stroke:none;stroke-width:1px;stroke-linecap:butt;stroke-linejoin:miter;stroke-opacity:1"
       d="M 196.582,-25.922911 L 196.582,-5.9229117 L 211.582,-15.922911 L 196.582,-25.922911 z"
       id="path3502" />
    <g
       transform="matrix(0.3828118,0,0,-0.3828118,3.7116467,2.7935795)"
       inkscape:label="acm01"
       id="g2721">
      <g
         id="g2723">
        <text
           id="text2725"
           transform="matrix(1,0,0,-1,-0.558901,82.762336)">
          <tspan
             id="tspan2727"
             sodipodi:role="line"
             y="0"
             x="0 11.279075 17.799259 23.438797 28.02833 41.949348 50.518738 56.175209 60.747807 70.09623 85.118057 94.466484 105.76249 112.28268 121.6311 127.27064 136.61906 148.79572 157.26349 166.61191 175.07497 179.64755 187.04839 199.25893 208.60735 219.88641 226.4066 234.89131 244.23973 251.64056 260.98898 267.50919 276.8576 286.22296 295.65607 305.00449 317.14728 331.0683 339.53607 346.92862 356.27704 360.84964 370.19806 377.61584 389.87717 399.24252 405.76273 410.33533 419.68375 433.77411 442.24188 448.76208 454.40161 458.99115 468.33957 475.74039 480.31299 488.78076"
             style="font-size:16.93554688px;font-variant:normal;font-weight:normal;writing-mode:lr-tb;fill:#000000;fill-opacity:1;fill-rule:nonzero;stroke:none;font-family:CMUSerif;-inkscape-font-specification:CMUSerif">Estimationofrotoranglesofsynchronousmachinesusingartiﬁcial</tspan>
          <tspan
             id="tspan2729"
             sodipodi:role="line"
             y="19.898573"
             x="66.443199 75.791618 83.192451 92.540878 99.061058 107.52883 117.80871 127.15714 134.55797 140.19751 152.35722 161.70564 168.22583 177.59119 189.81866 198.28644 207.63486 222.63976 227.21234 236.55409 243.95493 252.4227 262.65176 272.89777 289.64703 303.56805 309.20758 318.556 327.02377 333.54398 340.94479 356.03439 365.38281 374.73123 383.19901 392.56436 398.20389 402.77649 408.39926 412.97186 420.37268"
             style="font-size:16.93554688px;font-variant:normal;font-weight:normal;writing-mode:lr-tb;fill:#000000;fill-opacity:1;fill-rule:nonzero;stroke:none;font-family:CMUSerif;-inkscape-font-specification:CMUSerif">neuralnetworksandlocalPMU-basedquantities</tspan>
        </text>
        <text
           id="text2731"
           transform="matrix(1,0,0,-1,6.187599,35.933936)">
          <tspan
             id="tspan2733"
             sodipodi:role="line"
             y="0"
             x="0 9.9724026 13.469219 20.618265 26.277927 31.26413 35.57687 47.06456 57.710423 63.370083 71.218498 81.190895 88.339943 94.815529 100.47519 103.97201 111.80746 119.62997 123.12679 128.78645 133.76828 138.75449 148.83049 159.47635 165.13602 172.28506 177.27127 181.584 186.57021 194.40567 205.05153 211.54007 222.18593 225.68274 231.34241 242.83009 251.45558 256.44177 263.58505 268.57126 272.884 280.7583 293.56702 299.22668 305.70227 309.19907 316.34811 323.49716 326.99399 338.46872 349.11459 352.61142 359.08701 365.56259 369.05939 374.71906 382.64517 391.27066 398.40628 405.55533 409.05215 418.35107 431.15979 436.81946 443.96851 449.62817 456.77722 463.92627 469.58594"
             style="font-size:12.95117188px;font-variant:normal;font-weight:normal;writing-mode:lr-tb;fill:#000000;fill-opacity:1;fill-rule:nonzero;stroke:none;font-family:CMUSerif;-inkscape-font-specification:CMUSerif">AlbertoDelAngel,PierreGeurts,DamienErnst,MevludinGlavic,LouisWehenkel</tspan>
        </text>
        <text
           id="text2735"
           transform="matrix(1,0,0,-0.8887851,479.2898,41.716636)">
          <tspan
             id="tspan2737"
             y="0"
             x="0"
             style="font-size:13.59863281px;font-variant:normal;font-weight:normal;writing-mode:lr-tb;fill:#000000;fill-opacity:1;fill-rule:nonzero;stroke:none;font-family:CMUSerif;-inkscape-font-specification:CMUSerif">*</tspan>
        </text>
        <text
           id="text2739"
           transform="matrix(1,0,0,-1,37.028499,18.019036)">
          <tspan
             id="tspan2741"
             sodipodi:role="line"
             y="0"
             x="0 6.1366897 9.6194601 13.604324 17.589188 20.657532 23.311451 29.448141 32.938881 36.923744 42.183765 46.168629 51.420677 56.728516 58.880344 62.363113 65.845886 68.499802 71.568146 73.719978 77.210716 81.186859 86.000572 91.308411 95.293274 99.278137 101.42997 105.41483 108.8976 112.38037 115.44872 117.60054 121.48977 128.12057 132.10544 136.0903 142.69722 148.41948 152.40434 158.54103 162.51956 166.50443 169.15834 172.64111 178.29164 183.10536 186.58813 188.73996 192.22273 196.2076 199.69037 203.18111 207.94701 214.08369 218.06856 220.22038 223.70316 227.18593 230.25427 233.32262 235.47444 238.04866 244.67639 248.66125 253.97707 259.28491 261.43674 264.91949 268.90436 272.38712 277.16101 281.9747 285.95956 289.02792 294.28793 299.59576 301.74759 303.89944 310.03613 314.021 320.64383 325.95093 328.60483 332.58969 336.57455 341.33249 346.64828 349.30222 353.28708 357.27194 361.25681 367.87167 373.1795 375.33133 378.81412 382.79898 386.28174 390.99982 396.30768 399.79044 401.94226 405.92392 408.07574 412.06061"
             style="font-size:7.96972704px;font-variant:normal;font-weight:normal;writing-mode:lr-tb;fill:#000000;fill-opacity:1;fill-rule:nonzero;stroke:none;font-family:CMUSerif;-inkscape-font-specification:CMUSerif">DepartmentofElectricalEngineeringandComputerScience,UniversityofLiege,SartTilmanB-28,B-4000Liege,Belgium</tspan>
          <tspan
             id="tspan2743"
             sodipodi:role="line"
             y="15.930839"
             x="149.38626 155.52296 159.50783 163.49269 165.64452 167.79634 171.7812 176.1805 178.33232 184.42119 188.82048 193.21977 195.3716 197.52342 201.93068 208.01158 211.99644 218.61131 223.91916 227.40193 231.79575 234.86409 239.26338 243.24825 246.31659 252.90756 256.89243 260.87729 264.86215"
             style="font-size:7.96972704px;font-variant:normal;font-weight:normal;writing-mode:lr-tb;fill:#000000;fill-opacity:1;fill-rule:nonzero;stroke:none;font-family:CMUSerif;-inkscape-font-specification:CMUSerif">Availableonline27February2007</tspan>
        </text>
      </g>
    </g>
    <text
       xml:space="preserve"
       style="font-size:11.07726192px;font-style:normal;font-variant:normal;font-weight:bold;font-stretch:normal;fill:#000000;fill-opacity:1;stroke:none;stroke-width:1px;stroke-linecap:butt;stroke-linejoin:miter;stroke-opacity:1;font-family:CMU Serif;-inkscape-font-specification:CMU Serif Medium"
       x="276.02917"
       y="-27.841347"
       id="text2758"><tspan
         sodipodi:role="line"
         x="276.02917"
         y="138.31758"
         id="tspan2784" /></text>
    <text
       xml:space="preserve"
       style="font-size:6.38451099px;font-style:normal;font-variant:normal;font-weight:bold;font-stretch:normal;fill:#000000;fill-opacity:1;stroke:none;stroke-width:1px;stroke-linecap:butt;stroke-linejoin:miter;stroke-opacity:1;font-family:cmr10;-inkscape-font-specification:cmr10 Medium"
       x="218.33215"
       y="-61.249748"
       id="text4348"><tspan
         sodipodi:role="line"
         x="218.33215"
         y="-61.249748"
         style="font-style:normal;font-variant:normal;font-weight:bold;font-stretch:normal;font-family:CMU Serif;-inkscape-font-specification:CMU Serif Medium"
         id="tspan2531">@article{1316105,</tspan><tspan
         sodipodi:role="line"
         x="218.33215"
         y="-53.269108"
         style="font-style:normal;font-variant:normal;font-weight:bold;font-stretch:normal;font-family:CMU Serif;-inkscape-font-specification:CMU Serif Medium"
         id="tspan3158">author = {Del Angel, Alberto and Geurts, Pierre and Ernst, </tspan><tspan
         sodipodi:role="line"
         x="218.33215"
         y="-45.288471"
         style="font-style:normal;font-variant:normal;font-weight:bold;font-stretch:normal;font-family:CMU Serif;-inkscape-font-specification:CMU Serif Medium"
         id="tspan3187">    Damien and Glavic, Mevludin and Wehenkel, Louis},</tspan><tspan
         sodipodi:role="line"
         x="218.33215"
         y="-37.307831"
         style="font-style:normal;font-variant:normal;font-weight:bold;font-stretch:normal;font-family:CMU Serif;-inkscape-font-specification:CMU Serif Medium"
         id="tspan3160">title = {Estimation of rotor angles of synchronous machines </tspan><tspan
         sodipodi:role="line"
         x="218.33215"
         y="-29.327194"
         style="font-style:normal;font-variant:normal;font-weight:bold;font-stretch:normal;font-family:CMU Serif;-inkscape-font-specification:CMU Serif Medium"
         id="tspan3189">    using artificial neural networks and local PMU...},</tspan><tspan
         sodipodi:role="line"
         x="218.33215"
         y="-21.346554"
         style="font-style:normal;font-variant:normal;font-weight:bold;font-stretch:normal;font-family:CMU Serif;-inkscape-font-specification:CMU Serif Medium"
         id="tspan3162">journal = {Neurocomputing},</tspan><tspan
         sodipodi:role="line"
         x="218.33215"
         y="-13.365916"
         style="font-style:normal;font-variant:normal;font-weight:bold;font-stretch:normal;font-family:CMU Serif;-inkscape-font-specification:CMU Serif Medium"
         id="tspan3164">volume = {70},</tspan><tspan
         sodipodi:role="line"
         x="218.33215"
         y="-5.3852773"
         style="font-style:normal;font-variant:normal;font-weight:bold;font-stretch:normal;font-family:CMU Serif;-inkscape-font-specification:CMU Serif Medium"
         id="tspan3166">number = {16-18},</tspan><tspan
         sodipodi:role="line"
         x="218.33215"
         y="2.5953617"
         style="font-style:normal;font-variant:normal;font-weight:bold;font-stretch:normal;font-family:CMU Serif;-inkscape-font-specification:CMU Serif Medium"
         id="tspan3168">year = {2007},</tspan><tspan
         sodipodi:role="line"
         x="218.33215"
         y="10.576"
         style="font-style:normal;font-variant:normal;font-weight:bold;font-stretch:normal;font-family:CMU Serif;-inkscape-font-specification:CMU Serif Medium"
         id="tspan3170">issn = {0925-2312},</tspan><tspan
         sodipodi:role="line"
         x="218.33215"
         y="18.556639"
         style="font-style:normal;font-variant:normal;font-weight:bold;font-stretch:normal;font-family:CMU Serif;-inkscape-font-specification:CMU Serif Medium"
         id="tspan3172">pages = {2668-2678},</tspan><tspan
         sodipodi:role="line"
         x="218.33215"
         y="26.537277"
         style="font-style:normal;font-variant:normal;font-weight:bold;font-stretch:normal;font-family:CMU Serif;-inkscape-font-specification:CMU Serif Medium"
         id="tspan3178">...</tspan><tspan
         sodipodi:role="line"
         x="218.33215"
         y="34.517918"
         style="font-style:normal;font-variant:normal;font-weight:bold;font-stretch:normal;font-family:CMU Serif;-inkscape-font-specification:CMU Serif Medium"
         id="tspan3180">}</tspan><tspan
         sodipodi:role="line"
         x="218.33215"
         y="42.498554"
         style="font-style:normal;font-variant:normal;font-weight:bold;font-stretch:normal;font-family:CMU Serif;-inkscape-font-specification:CMU Serif Medium"
         id="tspan2533" /></text>
  </g>
</svg>
