<?xml version="1.0" encoding="UTF-8" standalone="no"?>
<!-- Created with Inkscape (http://www.inkscape.org/) -->
<svg
   xmlns:dc="http://purl.org/dc/elements/1.1/"
   xmlns:cc="http://creativecommons.org/ns#"
   xmlns:rdf="http://www.w3.org/1999/02/22-rdf-syntax-ns#"
   xmlns:svg="http://www.w3.org/2000/svg"
   xmlns="http://www.w3.org/2000/svg"
   xmlns:sodipodi="http://sodipodi.sourceforge.net/DTD/sodipodi-0.dtd"
   xmlns:inkscape="http://www.inkscape.org/namespaces/inkscape"
   width="620.92499"
   height="459.27737"
   id="svg6166"
   sodipodi:version="0.32"
   inkscape:version="0.46"
   version="1.0"
   sodipodi:docname="pdf2text:03.svg"
   inkscape:output_extension="org.inkscape.output.svg.inkscape">
  <defs
     id="defs6168">
    <inkscape:perspective
       sodipodi:type="inkscape:persp3d"
       inkscape:vp_x="0 : 526.18109 : 1"
       inkscape:vp_y="0 : 1000 : 0"
       inkscape:vp_z="744.09448 : 526.18109 : 1"
       inkscape:persp3d-origin="372.04724 : 350.78739 : 1"
       id="perspective6174" />
    <clipPath
       id="clipPath6243"
       clipPathUnits="userSpaceOnUse">
      <path
         id="path6245"
         d="M 481.946,758.211 L 543.798,758.211 L 543.798,739.899 L 481.946,739.899" />
    </clipPath>
    <inkscape:perspective
       id="perspective6183"
       inkscape:persp3d-origin="372.04724 : 350.78739 : 1"
       inkscape:vp_z="744.09448 : 526.18109 : 1"
       inkscape:vp_y="0 : 1000 : 0"
       inkscape:vp_x="0 : 526.18109 : 1"
       sodipodi:type="inkscape:persp3d" />
  </defs>
  <sodipodi:namedview
     id="base"
     pagecolor="#ffffff"
     bordercolor="#666666"
     borderopacity="1.0"
     gridtolerance="10000"
     guidetolerance="10"
     objecttolerance="10"
     inkscape:pageopacity="0.0"
     inkscape:pageshadow="2"
     inkscape:zoom="0.98994949"
     inkscape:cx="629.72224"
     inkscape:cy="221.60737"
     inkscape:document-units="px"
     inkscape:current-layer="capa1"
     showgrid="false"
     inkscape:window-width="1680"
     inkscape:window-height="1025"
     inkscape:window-x="1280"
     inkscape:window-y="0" />
  <metadata
     id="metadata6171">
    <rdf:RDF>
      <cc:Work
         rdf:about="">
        <dc:format>image/svg+xml</dc:format>
        <dc:type
           rdf:resource="http://purl.org/dc/dcmitype/StillImage" />
      </cc:Work>
    </rdf:RDF>
  </metadata>
  <g
     inkscape:label="Capa 1"
     inkscape:groupmode="layer"
     id="capa1"
     transform="translate(-702.14726,-383.3215)">
    <path
       id="path6189"
       style="fill:#231f20;fill-opacity:1;fill-rule:nonzero;stroke:none;-inkscape-font-specification:CMU Serif Medium;font-family:CMU Serif;font-weight:bold;font-style:normal;font-stretch:normal;font-variant:normal"
       d="M 1270.875,385.68972 L 1272.9506,385.68972 C 1274.1346,385.68972 1275.0581,386.30279 1275.0581,387.55863 C 1275.0581,388.62838 1274.5387,389.23004 1273.8434,389.67643 L 1275.6495,392.76922 L 1274.6323,393.08089 L 1272.9506,389.94587 L 1271.882,389.94587 L 1271.882,392.95645 L 1270.875,392.95645 L 1270.875,385.68972 z M 1271.882,389.21976 L 1272.4528,389.21976 C 1273.7395,389.21976 1273.9781,388.26418 1273.9781,387.65225 C 1273.9781,386.75946 1273.4176,386.41696 1272.7428,386.41696 L 1271.882,386.41696 L 1271.882,389.21976" />
    <path
       id="path6191"
       style="fill:#231f20;fill-opacity:1;fill-rule:nonzero;stroke:none;-inkscape-font-specification:CMU Serif Medium;font-family:CMU Serif;font-weight:bold;font-style:normal;font-stretch:normal;font-variant:normal"
       d="M 1275.8882,390.29864 C 1275.8882,388.61696 1277.1349,387.64197 1278.442,387.64197 C 1279.7504,387.64197 1281.0062,388.61696 1281.0062,390.29864 C 1281.0062,391.90726 1279.9776,393.08089 1278.442,393.08089 C 1276.9168,393.08089 1275.8882,391.90726 1275.8882,390.29864 z M 1276.8951,390.29864 C 1276.8951,391.27477 1277.2273,392.41644 1278.442,392.41644 C 1279.6671,392.41644 1279.9982,391.27477 1279.9982,390.29864 C 1279.9982,389.36475 1279.6157,388.30643 1278.442,388.30643 C 1277.2798,388.30643 1276.8951,389.36475 1276.8951,390.29864" />
    <path
       id="path6193"
       style="fill:#231f20;fill-opacity:1;fill-rule:nonzero;stroke:none;-inkscape-font-specification:CMU Serif Medium;font-family:CMU Serif;font-weight:bold;font-style:normal;font-stretch:normal;font-variant:normal"
       d="M 1285.3549,392.35365 C 1284.8263,392.81032 1284.3582,393.08089 1283.6835,393.08089 C 1282.4904,393.08089 1281.8465,392.41644 1281.8465,391.10923 L 1281.8465,387.76642 L 1282.7816,387.76642 L 1282.7816,390.9003 C 1282.7816,391.87643 1283.196,392.39589 1284.0374,392.39589 C 1284.7532,392.39589 1285.3446,391.80451 1285.3446,390.79755 L 1285.3446,387.76642 L 1286.2785,387.76642 L 1286.2785,392.95645 L 1285.3549,392.95645 L 1285.3549,392.35365" />
    <path
       id="path6195"
       style="fill:#231f20;fill-opacity:1;fill-rule:nonzero;stroke:none;-inkscape-font-specification:CMU Serif Medium;font-family:CMU Serif;font-weight:bold;font-style:normal;font-stretch:normal;font-variant:normal"
       d="M 1288.6668,387.76642 L 1290.0254,387.76642 L 1290.0254,388.30643 L 1288.6668,388.30643 L 1288.6668,391.24394 C 1288.6668,391.97005 1288.8119,392.40617 1289.3827,392.40617 C 1289.724,392.40617 1289.9216,392.32282 1290.0985,392.23035 L 1290.3257,392.74867 C 1290.0049,392.95645 1289.6213,393.08089 1289.2685,393.08089 C 1288.2307,393.08089 1287.7319,392.47923 1287.7319,391.41976 L 1287.7319,388.30643 L 1287.0046,388.30643 L 1287.0046,387.76642 L 1287.7319,387.76642 L 1287.7319,386.52085 L 1288.6668,386.20918 L 1288.6668,387.76642" />
    <path
       id="path6197"
       style="fill:#231f20;fill-opacity:1;fill-rule:nonzero;stroke:none;-inkscape-font-specification:CMU Serif Medium;font-family:CMU Serif;font-weight:bold;font-style:normal;font-stretch:normal;font-variant:normal"
       d="M 1290.7938,392.95645 L 1291.7273,392.95645 L 1291.7273,385.32747 L 1290.7938,385.32747 L 1290.7938,392.95645 z" />
    <path
       id="path6199"
       style="fill:#231f20;fill-opacity:1;fill-rule:nonzero;stroke:none;-inkscape-font-specification:CMU Serif Medium;font-family:CMU Serif;font-weight:bold;font-style:normal;font-stretch:normal;font-variant:normal"
       d="M 1293.576,390.42308 C 1293.5646,391.462 1294.301,392.41644 1295.3285,392.41644 C 1295.8068,392.41644 1296.3868,392.24062 1296.7511,391.97005 L 1297.0205,392.47923 C 1296.4816,392.86283 1295.8377,393.08089 1295.2977,393.08089 C 1293.6788,393.08089 1292.6091,392.08421 1292.6091,390.25754 C 1292.6091,388.46169 1293.8969,387.64197 1295.0693,387.64197 C 1296.6471,387.64197 1297.1769,389.0645 1297.073,390.42308 L 1293.576,390.42308 z M 1296.2224,389.80087 C 1296.2224,388.99143 1295.8799,388.30643 1295.0591,388.30643 C 1294.0636,388.30643 1293.6685,389.13642 1293.6377,389.80087 L 1296.2224,389.80087" />
    <path
       id="path6201"
       style="fill:#231f20;fill-opacity:1;fill-rule:nonzero;stroke:none;-inkscape-font-specification:CMU Serif Medium;font-family:CMU Serif;font-weight:bold;font-style:normal;font-stretch:normal;font-variant:normal"
       d="M 1301.6499,392.13673 L 1301.6294,392.13673 C 1301.2663,392.64477 1300.716,393.08089 1299.8643,393.08089 C 1298.4636,393.08089 1297.5708,391.95977 1297.5708,390.29864 C 1297.5708,388.94919 1298.5469,387.64197 1299.9694,387.64197 C 1300.6749,387.64197 1301.3086,387.91141 1301.6294,388.41032 L 1301.6499,388.41032 L 1301.6499,385.32781 L 1302.585,385.32781 L 1302.585,392.95645 L 1301.6499,392.95645 L 1301.6499,392.13673 z M 1301.6499,390.19589 C 1301.6499,389.21976 1301.1202,388.30643 1300.1041,388.30643 C 1299.0241,388.30643 1298.5788,389.15697 1298.5788,390.25754 C 1298.5788,391.36839 1299.056,392.41644 1300.0414,392.41644 C 1301.1727,392.41644 1301.6499,391.34784 1301.6499,390.19589" />
    <path
       id="path6203"
       style="fill:#231f20;fill-opacity:1;fill-rule:nonzero;stroke:none;-inkscape-font-specification:CMU Serif Medium;font-family:CMU Serif;font-weight:bold;font-style:normal;font-stretch:normal;font-variant:normal"
       d="M 1308.4588,392.76922 C 1308.4588,394.7523 1307.2247,395.55147 1305.8228,395.55147 C 1305.0556,395.55147 1304.2872,395.40648 1303.6844,395.03201 L 1303.9436,394.42007 C 1304.5772,394.78312 1305.1583,394.88702 1305.8022,394.88702 C 1306.8708,394.88702 1307.5261,394.20201 1307.5261,392.84228 L 1307.5261,392.13673 L 1307.5044,392.13673 C 1307.1414,392.64477 1306.5911,393.08089 1305.7703,393.08089 C 1304.3386,393.08089 1303.4458,391.95977 1303.4458,390.29864 C 1303.4458,388.94919 1304.4424,387.64197 1305.9266,387.64197 C 1306.5489,387.64197 1307.2133,387.95251 1307.5044,388.48224 L 1307.5261,388.48224 L 1307.5261,387.76642 L 1308.4588,387.76642 L 1308.4588,392.76922 z M 1307.5261,390.19589 C 1307.5261,389.21976 1306.9952,388.30643 1305.9791,388.30643 C 1304.8991,388.30643 1304.4528,389.15697 1304.4528,390.25754 C 1304.4528,391.36839 1304.93,392.41644 1305.9164,392.41644 C 1307.0477,392.41644 1307.5261,391.34784 1307.5261,390.19589" />
    <path
       id="path6205"
       style="fill:#231f20;fill-opacity:1;fill-rule:nonzero;stroke:none;-inkscape-font-specification:CMU Serif Medium;font-family:CMU Serif;font-weight:bold;font-style:normal;font-stretch:normal;font-variant:normal"
       d="M 1310.2855,390.42308 C 1310.2764,391.462 1311.0128,392.41644 1312.0414,392.41644 C 1312.5186,392.41644 1313.0998,392.24062 1313.4616,391.97005 L 1313.7323,392.47923 C 1313.1922,392.86283 1312.5483,393.08089 1312.0094,393.08089 C 1310.3895,393.08089 1309.3209,392.08421 1309.3209,390.25754 C 1309.3209,388.46169 1310.6087,387.64197 1311.7811,387.64197 C 1313.3589,387.64197 1313.8875,389.0645 1313.7848,390.42308 L 1310.2855,390.42308 z M 1312.9331,389.80087 C 1312.9331,388.99143 1312.5906,388.30643 1311.7697,388.30643 C 1310.7731,388.30643 1310.3791,389.13642 1310.3495,389.80087 L 1312.9331,389.80087" />
    <path
       id="path6207"
       style="fill:#231f20;fill-opacity:1;fill-rule:nonzero;stroke:none;-inkscape-font-specification:CMU Serif Medium;font-family:CMU Serif;font-weight:bold;font-style:normal;font-stretch:normal;font-variant:normal"
       d="M 1271.9756,400.45494 L 1271.9756,397.06304 L 1270.7689,397.06304 L 1270.7689,396.68629 L 1273.7099,396.68629 L 1273.7099,397.06304 L 1272.4985,397.06304 L 1272.4985,400.45494 L 1271.9756,400.45494" />
    <path
       id="path6209"
       style="fill:#231f20;fill-opacity:1;fill-rule:nonzero;stroke:none;-inkscape-font-specification:CMU Serif Medium;font-family:CMU Serif;font-weight:bold;font-style:normal;font-stretch:normal;font-variant:normal"
       d="M 1274.8766,400.16496 C 1274.6882,400.35219 1274.4508,400.51888 1274.2031,400.51888 C 1273.751,400.51888 1273.4381,400.19579 1273.4381,399.69003 C 1273.4381,399.22194 1273.8365,398.92511 1274.3971,398.75956 L 1275.049,398.55406 C 1275.0273,398.22526 1274.7739,398.01634 1274.5101,398.01634 C 1274.1973,398.01634 1273.9987,398.14534 1273.8046,398.30518 L 1273.6162,398.06429 C 1273.8857,397.80513 1274.1597,397.69781 1274.5364,397.69781 C 1274.9406,397.69781 1275.5342,397.82796 1275.5342,398.61343 L 1275.5342,399.79734 C 1275.5342,400.00284 1275.5605,400.25972 1275.653,400.45494 L 1275.1232,400.45494 C 1275.0593,400.34192 1275.049,400.16953 1275.049,399.99713 L 1274.8766,400.16496 z M 1274.5855,399.01187 C 1274.1597,399.14088 1273.9393,399.34524 1273.9393,399.68546 C 1273.9393,399.96403 1274.1334,400.14327 1274.3264,400.14327 C 1274.6722,400.14327 1275.1141,399.71743 1275.049,398.87716 L 1274.5855,399.01187" />
    <path
       id="path6211"
       style="fill:#231f20;fill-opacity:1;fill-rule:nonzero;stroke:none;-inkscape-font-specification:CMU Serif Medium;font-family:CMU Serif;font-weight:bold;font-style:normal;font-stretch:normal;font-variant:normal"
       d="M 1276.4499,397.70923 C 1276.7239,398.39309 1277.0047,399.08151 1277.2742,399.89438 L 1277.2856,399.89438 C 1277.5652,399.08151 1277.845,398.39309 1278.1315,397.70923 L 1278.5574,397.81083 L 1277.1725,400.92874 C 1276.919,401.49843 1276.5846,401.80097 1276.1211,401.80097 L 1275.879,401.80097 L 1275.879,401.45619 L 1276.0674,401.45619 C 1276.4019,401.45619 1276.6382,401.37056 1277.0207,400.30424 L 1275.9658,397.84394 L 1276.4499,397.70923" />
    <path
       id="path6213"
       style="fill:#231f20;fill-opacity:1;fill-rule:nonzero;stroke:none;-inkscape-font-specification:CMU Serif Medium;font-family:CMU Serif;font-weight:bold;font-style:normal;font-stretch:normal;font-variant:normal"
       d="M 1278.9832,400.45494 L 1279.4683,400.45494 L 1279.4683,396.49711 L 1278.9832,396.49711 L 1278.9832,400.45494 z" />
    <path
       id="path6215"
       style="fill:#231f20;fill-opacity:1;fill-rule:nonzero;stroke:none;-inkscape-font-specification:CMU Serif Medium;font-family:CMU Serif;font-weight:bold;font-style:normal;font-stretch:normal;font-variant:normal"
       d="M 1280.0815,399.07695 C 1280.0815,398.20357 1280.7277,397.69781 1281.407,397.69781 C 1282.0852,397.69781 1282.7382,398.20357 1282.7382,399.07695 C 1282.7382,399.91151 1282.2039,400.51888 1281.407,400.51888 C 1280.6147,400.51888 1280.0815,399.91151 1280.0815,399.07695 z M 1280.6044,399.07695 C 1280.6044,399.58271 1280.7768,400.17409 1281.407,400.17409 C 1282.0429,400.17409 1282.2153,399.58271 1282.2153,399.07695 C 1282.2153,398.5906 1282.0155,398.04259 1281.407,398.04259 C 1280.803,398.04259 1280.6044,398.5906 1280.6044,399.07695" />
    <path
       id="path6217"
       style="fill:#231f20;fill-opacity:1;fill-rule:nonzero;stroke:none;-inkscape-font-specification:CMU Serif Medium;font-family:CMU Serif;font-weight:bold;font-style:normal;font-stretch:normal;font-variant:normal"
       d="M 1283.8251,398.09625 L 1284.0191,397.89075 C 1284.1333,397.77887 1284.3102,397.69781 1284.4244,397.69781 C 1284.542,397.69781 1284.7201,397.78458 1284.8708,397.96154 L 1284.6504,398.27321 C 1284.5329,398.21384 1284.4142,398.16133 1284.2897,398.16133 C 1284.042,398.16133 1283.8365,398.40793 1283.8365,399.00616 L 1283.8365,400.45494 L 1283.3512,400.45494 L 1283.3512,397.76288 L 1283.8251,397.76288 L 1283.8251,398.09625" />
    <path
       id="path6219"
       style="fill:#231f20;fill-opacity:1;fill-rule:nonzero;stroke:none;-inkscape-font-specification:CMU Serif Medium;font-family:CMU Serif;font-weight:bold;font-style:normal;font-stretch:normal;font-variant:normal"
       d="M 1292.9082,397.06304 L 1291.5713,397.06304 L 1291.5713,398.4947 L 1292.8796,398.4947 L 1292.8796,398.87145 L 1291.5713,398.87145 L 1291.5713,400.45494 L 1291.0484,400.45494 L 1291.0484,396.68629 L 1292.9082,396.68629 L 1292.9082,397.06304" />
    <path
       id="path6221"
       style="fill:#231f20;fill-opacity:1;fill-rule:nonzero;stroke:none;-inkscape-font-specification:CMU Serif Medium;font-family:CMU Serif;font-weight:bold;font-style:normal;font-stretch:normal;font-variant:normal"
       d="M 1294.059,398.09625 L 1294.2531,397.89075 C 1294.3683,397.77887 1294.5453,397.69781 1294.6572,397.69781 C 1294.776,397.69781 1294.9552,397.78458 1295.1048,397.96154 L 1294.8844,398.27321 C 1294.7656,398.21384 1294.6481,398.16133 1294.5225,398.16133 C 1294.2759,398.16133 1294.0704,398.40793 1294.0704,399.00616 L 1294.0704,400.45494 L 1293.5852,400.45494 L 1293.5852,397.76288 L 1294.059,397.76288 L 1294.059,398.09625" />
    <path
       id="path6223"
       style="fill:#231f20;fill-opacity:1;fill-rule:nonzero;stroke:none;-inkscape-font-specification:CMU Serif Medium;font-family:CMU Serif;font-weight:bold;font-style:normal;font-stretch:normal;font-variant:normal"
       d="M 1296.7156,400.16496 C 1296.5284,400.35219 1296.2898,400.51888 1296.042,400.51888 C 1295.5899,400.51888 1295.2771,400.19579 1295.2771,399.69003 C 1295.2771,399.22194 1295.6767,398.92511 1296.2373,398.75956 L 1296.8892,398.55406 C 1296.8675,398.22526 1296.6141,398.01634 1296.3492,398.01634 C 1296.0375,398.01634 1295.8377,398.14534 1295.6436,398.30518 L 1295.4552,398.06429 C 1295.7246,397.80513 1295.9998,397.69781 1296.3777,397.69781 C 1296.7807,397.69781 1297.3744,397.82796 1297.3744,398.61343 L 1297.3744,399.79734 C 1297.3744,400.00284 1297.4006,400.25972 1297.492,400.45494 L 1296.9645,400.45494 C 1296.9006,400.34192 1296.8892,400.16953 1296.8892,399.99713 L 1296.7156,400.16496 z M 1296.4256,399.01187 C 1295.9998,399.14088 1295.7794,399.34524 1295.7794,399.68546 C 1295.7794,399.96403 1295.9724,400.14327 1296.1665,400.14327 C 1296.5124,400.14327 1296.9531,399.71743 1296.8892,398.87716 L 1296.4256,399.01187" />
    <path
       id="path6225"
       style="fill:#231f20;fill-opacity:1;fill-rule:nonzero;stroke:none;-inkscape-font-specification:CMU Serif Medium;font-family:CMU Serif;font-weight:bold;font-style:normal;font-stretch:normal;font-variant:normal"
       d="M 1298.6348,398.09625 C 1298.8883,397.82796 1299.2764,397.69781 1299.5561,397.69781 C 1300.1761,397.69781 1300.5094,398.04259 1300.5094,398.72075 L 1300.5094,400.45494 L 1300.0242,400.45494 L 1300.0242,398.8235 C 1300.0242,398.31774 1299.8095,398.05287 1299.3734,398.05287 C 1298.9898,398.05287 1298.6405,398.31774 1298.6405,398.83377 L 1298.6405,400.45494 L 1298.1553,400.45494 L 1298.1553,397.76288 L 1298.6348,397.76288 L 1298.6348,398.09625" />
    <path
       id="path6227"
       style="fill:#231f20;fill-opacity:1;fill-rule:nonzero;stroke:none;-inkscape-font-specification:CMU Serif Medium;font-family:CMU Serif;font-weight:bold;font-style:normal;font-stretch:normal;font-variant:normal"
       d="M 1303.3761,400.23917 C 1303.1113,400.42869 1302.7939,400.51888 1302.5622,400.51888 C 1301.2858,400.51888 1301.1248,399.47425 1301.1248,399.10321 C 1301.1248,398.42962 1301.5712,397.69781 1302.5838,397.69781 C 1302.859,397.69781 1303.1056,397.76859 1303.3053,397.91929 L 1303.1444,398.19329 C 1302.988,398.11794 1302.7882,398.05287 1302.5896,398.05287 C 1302.1477,398.05287 1301.6465,398.344 1301.6465,399.07695 C 1301.6465,399.63637 1301.932,400.16496 1302.5838,400.16496 C 1302.8156,400.16496 1303.0302,400.10445 1303.2414,399.97088 L 1303.3761,400.23917" />
    <path
       id="path6229"
       style="fill:#231f20;fill-opacity:1;fill-rule:nonzero;stroke:none;-inkscape-font-specification:CMU Serif Medium;font-family:CMU Serif;font-weight:bold;font-style:normal;font-stretch:normal;font-variant:normal"
       d="M 1303.834,396.87352 C 1303.834,396.73881 1303.947,396.58811 1304.14,396.58811 C 1304.3363,396.58811 1304.4482,396.73881 1304.4482,396.87352 C 1304.4482,397.01966 1304.3785,397.20232 1304.14,397.20232 C 1303.9036,397.20232 1303.834,397.01966 1303.834,396.87352 z M 1304.3831,397.76288 L 1304.3831,400.45494 L 1303.899,400.45494 L 1303.899,397.76288 L 1304.3831,397.76288" />
    <path
       id="path6231"
       style="fill:#231f20;fill-opacity:1;fill-rule:nonzero;stroke:none;-inkscape-font-specification:CMU Serif Medium;font-family:CMU Serif;font-weight:bold;font-style:normal;font-stretch:normal;font-variant:normal"
       d="M 1306.4472,398.19329 C 1306.2531,398.06429 1306.0968,398.0209 1305.9506,398.0209 C 1305.7782,398.0209 1305.5579,398.10196 1305.5579,398.32801 C 1305.5579,398.55406 1305.8056,398.66823 1306.1139,398.89885 C 1306.4586,399.16257 1306.6836,399.38292 1306.6836,399.75967 C 1306.6836,400.21291 1306.2372,400.51888 1305.7406,400.51888 C 1305.4346,400.51888 1305.0886,400.3853 1304.9117,400.1798 L 1305.148,399.9058 C 1305.3045,400.05079 1305.5145,400.17409 1305.7303,400.17409 C 1305.9575,400.17409 1306.1892,400.0565 1306.1892,399.79278 C 1306.1892,399.47996 1305.9084,399.34524 1305.6549,399.16257 C 1305.3478,398.94223 1305.0795,398.75956 1305.0795,398.39309 C 1305.0795,397.96724 1305.4985,397.69781 1305.9723,397.69781 C 1306.2372,397.69781 1306.4952,397.80513 1306.6367,397.94555 L 1306.4472,398.19329" />
    <path
       id="path6233"
       style="fill:#231f20;fill-opacity:1;fill-rule:nonzero;stroke:none;-inkscape-font-specification:CMU Serif Medium;font-family:CMU Serif;font-weight:bold;font-style:normal;font-stretch:normal;font-variant:normal"
       d="M 1311.6852,398.73216 L 1311.6852,400.26543 C 1311.3188,400.39558 1310.8621,400.51888 1310.3814,400.51888 C 1309.04,400.51888 1308.3504,399.59412 1308.3504,398.55977 C 1308.3504,397.60648 1309.0936,396.62121 1310.4511,396.62121 C 1311.0014,396.62121 1311.4329,396.79817 1311.6578,396.98655 L 1311.4432,397.29937 C 1311.2171,397.14296 1310.8723,396.99797 1310.4568,396.99797 C 1309.4772,396.99797 1308.9269,397.6647 1308.9269,398.54835 C 1308.9269,399.50165 1309.5789,400.14327 1310.3986,400.14327 C 1310.716,400.14327 1310.9523,400.11016 1311.1623,400.00741 L 1311.1623,398.73216 L 1311.6852,398.73216" />
    <path
       id="path6235"
       style="fill:#231f20;fill-opacity:1;fill-rule:nonzero;stroke:none;-inkscape-font-specification:CMU Serif Medium;font-family:CMU Serif;font-weight:bold;font-style:normal;font-stretch:normal;font-variant:normal"
       d="M 1312.9456,398.09625 L 1313.1409,397.89075 C 1313.2539,397.77887 1313.4309,397.69781 1313.5438,397.69781 C 1313.6638,397.69781 1313.8396,397.78458 1313.9914,397.96154 L 1313.7711,398.27321 C 1313.6524,398.21384 1313.5336,398.16133 1313.4091,398.16133 C 1313.1614,398.16133 1312.957,398.40793 1312.957,399.00616 L 1312.957,400.45494 L 1312.473,400.45494 L 1312.473,397.76288 L 1312.9456,397.76288 L 1312.9456,398.09625" />
    <path
       id="path6237"
       style="fill:#231f20;fill-opacity:1;fill-rule:nonzero;stroke:none;-inkscape-font-specification:CMU Serif Medium;font-family:CMU Serif;font-weight:bold;font-style:normal;font-stretch:normal;font-variant:normal"
       d="M 1314.1638,399.07695 C 1314.1638,398.20357 1314.81,397.69781 1315.4893,397.69781 C 1316.1686,397.69781 1316.8193,398.20357 1316.8193,399.07695 C 1316.8193,399.91151 1316.2861,400.51888 1315.4893,400.51888 C 1314.6981,400.51888 1314.1638,399.91151 1314.1638,399.07695 z M 1314.6867,399.07695 C 1314.6867,399.58271 1314.8591,400.17409 1315.4893,400.17409 C 1316.1252,400.17409 1316.2976,399.58271 1316.2976,399.07695 C 1316.2976,398.5906 1316.0978,398.04259 1315.4893,398.04259 C 1314.8854,398.04259 1314.6867,398.5906 1314.6867,399.07695" />
    <g
       id="g6239"
       transform="matrix(1.1416707,0,0,-1.1416707,702.23399,1248.5017)"
       style="-inkscape-font-specification:CMU Serif Medium;font-family:CMU Serif;font-weight:bold;font-style:normal;font-stretch:normal;font-variant:normal">
      <g
         clip-path="url(#clipPath6243)"
         id="g6241"
         style="-inkscape-font-specification:CMU Serif Medium;font-family:CMU Serif;font-weight:bold;font-style:normal;font-stretch:normal;font-variant:normal">
        <path
           id="path6247"
           style="fill:#231f20;fill-opacity:1;fill-rule:nonzero;stroke:none;-inkscape-font-specification:CMU Serif Medium;font-family:CMU Serif;font-weight:bold;font-style:normal;font-stretch:normal;font-variant:normal"
           d="M 540.435,743.085 C 540.195,742.878 539.983,742.756 539.676,742.756 C 539.133,742.756 538.841,743.058 538.841,743.652 L 538.841,745.17 L 539.266,745.17 L 539.266,743.746 C 539.266,743.303 539.455,743.066 539.836,743.066 C 540.162,743.066 540.431,743.336 540.431,743.794 L 540.431,745.17 L 540.856,745.17 L 540.856,742.812 L 540.435,742.812 L 540.435,743.085" />
        <path
           id="path6249"
           style="fill:#231f20;fill-opacity:1;fill-rule:nonzero;stroke:none;-inkscape-font-specification:CMU Serif Medium;font-family:CMU Serif;font-weight:bold;font-style:normal;font-stretch:normal;font-variant:normal"
           d="M 541.979,744.802 L 541.989,744.802 C 542.164,745.086 542.499,745.227 542.763,745.227 C 543.683,745.227 543.833,744.402 543.833,744.062 C 543.833,743.345 543.408,742.756 542.715,742.756 C 542.419,742.756 542.164,742.896 541.989,743.123 L 541.979,743.123 L 541.979,741.633 L 541.554,741.633 L 541.554,745.17 L 541.979,745.17 L 541.979,744.802 z M 543.376,744.057 C 543.376,744.486 543.159,744.925 542.72,744.925 C 542.239,744.925 541.979,744.552 541.979,743.944 C 541.979,743.492 542.187,743.058 542.715,743.058 C 543.225,743.058 543.376,743.628 543.376,744.057" />
      </g>
    </g>
    <path
       id="path6251"
       style="fill:#231f20;fill-opacity:1;fill-rule:nonzero;stroke:none;-inkscape-font-specification:CMU Serif Medium;font-family:CMU Serif;font-weight:bold;font-style:normal;font-stretch:normal;font-variant:normal"
       d="M 1288.99,399.57243 C 1289.1704,399.21623 1289.1932,398.81436 1289.1258,398.49812 L 1288.7068,398.49812 C 1288.7913,398.77783 1288.805,399.09864 1288.6988,399.31327 L 1287.4921,398.18759 C 1287.121,397.84851 1286.9863,397.64872 1286.9863,397.43408 C 1286.9863,397.19662 1287.1633,396.99797 1287.5138,396.99797 C 1287.7456,396.99797 1287.9556,397.12241 1288.0481,397.18063 L 1288.2365,396.87923 C 1287.999,396.70798 1287.7512,396.62121 1287.4658,396.62121 C 1286.8619,396.62121 1286.4578,397.01966 1286.4578,397.46034 C 1286.4578,397.84851 1286.7386,398.10767 1286.9475,398.30518 C 1286.5011,398.51182 1286.1404,398.89885 1286.1404,399.39433 C 1286.1404,399.62609 1286.3081,400.51888 1287.4818,400.51888 C 1288.0047,400.51888 1288.4306,400.28255 1288.7205,399.95375 L 1289.3359,400.51888 L 1289.8143,400.27684 L 1288.99,399.57243 z M 1287.5412,400.16496 C 1286.9692,400.16496 1286.7009,399.69003 1286.7009,399.34524 C 1286.7009,399.03356 1286.8459,398.75271 1287.1861,398.56434 L 1288.458,399.70715 C 1288.3015,399.92749 1287.9556,400.16496 1287.5412,400.16496" />
    <path
       id="path6253"
       style="fill:#231f20;fill-opacity:1;fill-rule:nonzero;stroke:none;-inkscape-font-specification:CMU Serif Medium;font-family:CMU Serif;font-weight:bold;font-style:normal;font-stretch:normal;font-variant:normal"
       d="M 1263.3606,384.11992 C 1261.954,383.00679 1259.6319,383.2043 1258.0609,383.82309 L 1258.0609,383.87332 L 1258.1603,383.87332 C 1259.3088,384.00233 1260.4379,384.91795 1260.7347,386.05277 C 1260.503,387.26522 1261.6115,387.66367 1262.2201,388.52905 C 1262.1584,388.69802 1262.0625,388.90124 1261.8741,388.97545 C 1261.7371,389.27228 1262.1139,389.47093 1262.1219,389.76776 C 1261.6914,389.98012 1262.3559,390.17306 1262.1721,390.41053 C 1262.1082,390.59433 1262.0625,390.89688 1262.2201,391.05557 C 1262.3754,391.52594 1262.2064,391.98146 1261.8251,392.29314 C 1260.5726,392.87882 1258.8727,392.80461 1258.1603,394.27508 C 1258.0461,394.72604 1257.9274,395.42474 1258.2585,395.81063 C 1260.3443,397.71265 1262.1276,399.74254 1261.9243,402.59672 L 1266.6805,402.59672 C 1266.4317,400.18894 1264.7192,398.2127 1262.7167,396.70227 C 1261.8547,396.06294 1260.5281,395.4784 1260.6365,394.1769 C 1260.8649,393.21904 1261.9449,393.46678 1262.6676,393.28411 C 1263.2613,393.13569 1263.9702,393.15054 1264.3504,392.59112 C 1264.4509,392.27373 1264.387,391.90269 1264.3025,391.60015 C 1264.3378,391.46657 1264.4806,391.38665 1264.5993,391.3524 C 1264.7226,391.18914 1264.7077,390.98136 1264.5011,390.85692 C 1264.8173,390.68338 1264.6838,390.27238 1264.6484,390.01551 C 1264.8173,389.8317 1265.04,389.78717 1265.1941,389.56911 C 1265.2729,389.45038 1265.2638,389.24374 1265.1941,389.12272 C 1264.0547,388.18883 1264.9612,386.52314 1264.4007,385.40772 C 1264.0833,384.96818 1263.8709,384.43845 1263.3606,384.11992 z M 1253.7306,384.02059 L 1253.7306,384.69418 L 1255.0367,384.69418 C 1255.0367,384.79807 1254.9682,384.8289 1254.9454,384.8837 C 1254.9031,384.99558 1254.7478,385.06865 1254.282,385.20222 L 1253.8471,385.33237 L 1253.7306,385.36092 L 1253.7306,386.06076 L 1253.7786,386.03907 C 1253.8813,385.99454 1253.9121,385.98769 1254.0845,385.93061 L 1254.266,385.87124 C 1254.6131,385.75936 1254.709,385.72853 1254.8084,385.68401 C 1254.9979,385.60752 1255.088,385.54244 1255.1611,385.43969 C 1255.2912,385.76278 1255.5162,385.93061 1255.8347,385.93061 C 1256.119,385.93061 1256.3565,385.8153 1256.5072,385.60752 C 1256.6407,385.42257 1256.6749,385.25817 1256.6749,384.8152 L 1256.6749,384.02059 L 1253.7306,384.02059 z M 1255.4853,384.69418 L 1256.1624,384.69418 L 1256.1624,384.79351 C 1256.1624,385.15998 1256.0881,385.26273 1255.8301,385.26273 C 1255.5675,385.26273 1255.4853,385.15085 1255.4853,384.79807 L 1255.4853,384.69418 z M 1255.2011,386.03907 C 1254.2957,386.03907 1253.6918,386.49345 1253.6918,387.17389 C 1253.6918,387.85889 1254.2957,388.31099 1255.2011,388.31099 C 1256.1155,388.31099 1256.7127,387.86346 1256.7127,387.17389 C 1256.7127,386.4866 1256.1155,386.03907 1255.2011,386.03907 z M 1255.2136,386.7058 C 1255.8552,386.7058 1256.1315,386.84965 1256.1315,387.17389 C 1256.1315,387.50383 1255.8552,387.64426 1255.2136,387.64426 C 1254.5674,387.64426 1254.2695,387.49584 1254.2695,387.17389 C 1254.2695,386.85422 1254.5674,386.7058 1255.2136,386.7058 z M 1256.6749,388.47425 L 1254.8688,388.47425 C 1254.54,388.47425 1254.4156,388.48681 1254.2386,388.55531 C 1253.8859,388.6866 1253.6918,389.01655 1253.6918,389.48463 C 1253.6918,389.78489 1253.7603,390.00409 1253.9167,390.18676 C 1254.0023,390.28722 1254.1097,390.36372 1254.2386,390.41509 C 1254.4122,390.47788 1254.54,390.49501 1254.8688,390.49501 L 1256.6749,390.49501 L 1256.6749,389.83626 L 1254.8814,389.83626 C 1254.3779,389.83626 1254.2341,389.75977 1254.2341,389.48463 C 1254.2341,389.21063 1254.3779,389.13414 1254.8814,389.13414 L 1256.6749,389.13414 L 1256.6749,388.47425 z M 1253.7409,394.36527 L 1253.7306,396.15085 L 1254.2432,396.15085 L 1254.2432,395.06854 L 1254.9728,395.06854 L 1254.9728,396.03896 L 1255.4853,396.03896 L 1255.4853,395.06854 L 1256.1624,395.06854 L 1256.1624,396.11545 L 1256.6749,396.11545 L 1256.6738,394.36527 L 1253.7409,394.36527 z M 1253.7306,396.30611 L 1253.7306,397.0893 C 1253.7306,397.38271 1253.7568,397.52428 1253.8471,397.69324 C 1254.0582,398.10767 1254.588,398.36797 1255.2045,398.36797 C 1255.7045,398.36797 1256.0756,398.23896 1256.3598,397.96953 C 1256.4717,397.85764 1256.5585,397.72178 1256.6099,397.56994 C 1256.6612,397.41924 1256.6749,397.31649 1256.6749,397.04706 L 1256.6749,396.30611 L 1253.7306,396.30611 z M 1254.2261,396.9523 L 1256.1749,396.9523 L 1256.1749,397.06418 C 1256.1749,397.23087 1256.1658,397.30393 1256.1269,397.37814 C 1256.0151,397.59734 1255.692,397.71379 1255.192,397.71379 C 1254.8769,397.71722 1254.6577,397.67269 1254.4818,397.57679 C 1254.3083,397.48203 1254.2261,397.32905 1254.2261,397.08473 L 1254.2261,396.9523 z M 1254.0366,400.7084 L 1255.3084,400.7084 L 1255.3084,399.70829 L 1254.8209,399.70829 L 1254.8209,400.03481 L 1254.3208,400.03481 C 1254.2786,399.94918 1254.2523,399.84643 1254.2523,399.76423 C 1254.2523,399.39205 1254.58,399.18198 1255.1577,399.18198 C 1255.8039,399.18198 1256.1703,399.44913 1256.1703,399.91037 C 1256.1703,400.1524 1256.0881,400.34649 1255.877,400.60907 L 1256.4809,400.60907 C 1256.6442,400.32822 1256.7127,400.08733 1256.7127,399.79049 C 1256.7127,399.06096 1256.0368,398.50497 1255.1577,398.50497 C 1254.3003,398.50497 1253.6918,399.03242 1253.6918,399.76766 C 1253.6918,399.90238 1253.7306,400.10559 1253.782,400.25629 C 1253.8471,400.42869 1253.8905,400.50974 1254.0366,400.7084 z M 1253.7306,400.89677 L 1253.7306,402.65038 L 1254.2432,402.65038 L 1254.2432,401.56807 L 1254.9728,401.56807 L 1254.9728,402.53849 L 1255.4853,402.53849 L 1255.4853,401.56807 L 1256.1624,401.56807 L 1256.1624,402.61613 L 1256.6749,402.61613 L 1256.6749,400.89677 L 1253.7306,400.89677 z M 1253.7477,391.2291 L 1253.7477,391.90155 L 1256.1795,391.90155 L 1256.1795,392.46439 L 1256.6921,392.46439 L 1256.6921,390.63772 L 1256.1795,390.63772 L 1256.1795,391.2291 L 1253.7477,391.2291 z M 1253.7398,392.62308 L 1253.7398,394.21457 L 1254.2695,394.21457 L 1254.2695,393.29553 L 1256.683,393.29553 L 1256.683,392.62308 L 1253.7398,392.62308" />
    <text
       id="text6255"
       x="777.12036"
       y="401.0621"
       style="font-size:13.70004845000000060px;-inkscape-font-specification:CMU Serif Medium;font-family:CMU Serif;font-weight:bold;font-style:normal;font-stretch:normal;font-variant:normal">
      <tspan
         id="tspan6257"
         sodipodi:role="line"
         y="401.0621"
         x="777.12036 784.27698 791.04572 797.81451 800.67969 803.5448 809.27515 820.29156 826.02185 831.36426 837.8703 844.77667 851.28271 861.5672 864.43237 869.77478"
         style="font-size:12.51156901999999960px;font-variant:normal;font-weight:bold;writing-mode:lr-tb;fill:#231f20;fill-opacity:1;fill-rule:nonzero;stroke:none;font-family:CMU Serif;-inkscape-font-specification:CMU Serif Medium;font-style:normal;font-stretch:normal">AppliedEconomics</tspan>
    </text>
    <text
       id="text6259"
       x="874.66058"
       y="401.0621"
       style="font-size:13.70004845000000060px;-inkscape-font-specification:CMU Serif Medium;font-family:CMU Serif;font-weight:bold;font-style:normal;font-stretch:normal;font-variant:normal">
      <tspan
         id="tspan6261"
         sodipodi:role="line"
         y="401.0621"
         x="874.66058 882.4278 889.58441 896.74097 903.89758 911.05426"
         style="font-size:12.51156901999999960px;font-variant:normal;font-weight:bold;writing-mode:lr-tb;fill:#231f20;fill-opacity:1;fill-rule:nonzero;stroke:none;font-family:CMU Serif;-inkscape-font-specification:CMU Serif Medium;font-style:normal;font-stretch:normal">,2010,</tspan>
    </text>
    <text
       id="text6263"
       x="918.93152"
       y="401.0621"
       style="font-size:13.70004845000000060px;-inkscape-font-specification:CMU Serif Medium;font-family:CMU Serif;font-weight:bold;font-style:normal;font-stretch:normal;font-variant:normal">
      <tspan
         id="tspan6265"
         sodipodi:role="line"
         y="401.0621"
         x="918.93152 926.75128"
         style="font-size:12.51156901999999960px;font-variant:normal;font-weight:bold;writing-mode:lr-tb;fill:#231f20;fill-opacity:1;fill-rule:nonzero;stroke:none;font-family:CMU Serif;-inkscape-font-specification:CMU Serif Medium;font-style:normal;font-stretch:normal">42</tspan>
    </text>
    <text
       id="text6267"
       x="934.59479"
       y="401.0621"
       style="font-size:13.70004845000000060px;-inkscape-font-specification:CMU Serif Medium;font-family:CMU Serif;font-weight:bold;font-style:normal;font-stretch:normal;font-variant:normal">
      <tspan
         id="tspan6269"
         sodipodi:role="line"
         y="401.0621"
         x="934.59479 942.427 949.58362 956.74023 963.89685 970.15265 977.30933 984.46594"
         style="font-size:12.51156901999999960px;font-variant:normal;font-weight:bold;writing-mode:lr-tb;fill:#231f20;fill-opacity:1;fill-rule:nonzero;stroke:none;font-family:CMU Serif;-inkscape-font-specification:CMU Serif Medium;font-style:normal;font-stretch:normal">,825–850</tspan>
    </text>
    <path
       id="path6271"
       style="fill:#231f20;fill-opacity:1;fill-rule:nonzero;stroke:none;-inkscape-font-specification:CMU Serif Medium;font-family:CMU Serif;font-weight:bold;font-style:normal;font-stretch:normal;font-variant:normal"
       d="M 777.12074,430.96495 L 1138.8671,430.96495 L 1138.8671,429.28213 L 777.12074,429.28213 L 777.12074,430.96495 z" />
    <text
       id="text6273"
       x="777.12036"
       y="465.78671"
       style="font-size:13.70004845000000060px;-inkscape-font-specification:CMU Serif Medium;font-family:CMU Serif;font-weight:bold;font-style:normal;font-stretch:normal;font-variant:normal">
      <tspan
         id="tspan6275"
         sodipodi:role="line"
         y="465.78671"
         x="777.12036 798.20789 811.21985 824.70947 836.31104 841.74786 847.18463 852.6214 865.88361 887.08942 894.89203 908.15417 927.41272 932.84955 946.11169 953.91431 965.51587 973.31848 984.69257 995.58893 1003.3915 1008.8283 1021.8402 1035.1024 1051.5562 1062.9302 1073.8265 1081.6292 1094.6411 1103.399"
         style="font-size:22.74813271000000015px;font-variant:normal;font-weight:bold;writing-mode:lr-tb;fill:#231f20;fill-opacity:1;fill-rule:nonzero;stroke:none;font-family:CMU Serif;-inkscape-font-specification:CMU Serif Medium;font-style:normal;font-stretch:normal">Modellingtheinteractionsacross</tspan>
      <tspan
         id="tspan6277"
         sodipodi:role="line"
         y="495.62543"
         x="777.12036 782.55719 795.81934 803.62195 815.22351 823.02612 836.28827 847.66235 855.46497 860.90179 873.9137 887.17584 898.54993 911.74835 920.50641 928.30902 941.32092 952.21729 963.11371 977.37903 990.86871 1003.8807 1017.1428 1038.2848 1049.6589 1062.921"
         style="font-size:22.74813271000000015px;font-variant:normal;font-weight:bold;writing-mode:lr-tb;fill:#231f20;fill-opacity:1;fill-rule:nonzero;stroke:none;font-family:CMU Serif;-inkscape-font-specification:CMU Serif Medium;font-style:normal;font-stretch:normal">internationalstock,bondand</tspan>
      <tspan
         id="tspan6279"
         sodipodi:role="line"
         y="525.46417"
         x="777.12036 783.74011 796.75201 804.55463 816.15619 821.59302 835.08264 856.08594 867.6875 879.5166 890.4129 903.67505 915.04913 928.31128 941.80096 961.00488 981.36456 992.73859 1000.5411 1011.4375 1023.0391 1030.8417"
         style="font-size:22.74813271000000015px;font-variant:normal;font-weight:bold;writing-mode:lr-tb;fill:#231f20;fill-opacity:1;fill-rule:nonzero;stroke:none;font-family:CMU Serif;-inkscape-font-specification:CMU Serif Medium;font-style:normal;font-stretch:normal">foreignexchangemarkets</tspan>
    </text>
    <text
       id="text6281"
       x="777.12036"
       y="566.8866"
       style="font-size:13.70004845000000060px;-inkscape-font-specification:CMU Serif Medium;font-family:CMU Serif;font-weight:bold;font-style:normal;font-stretch:normal;font-variant:normal">
      <tspan
         id="tspan6283"
         sodipodi:role="line"
         y="566.8866"
         x="777.12036 786.75427 793.66071 800.56708 807.47345 815.04919 825.33374 831.58948 838.49585 841.87402"
         style="font-size:12.51156901999999960px;font-variant:normal;font-weight:bold;writing-mode:lr-tb;fill:#231f20;fill-opacity:1;fill-rule:nonzero;stroke:none;font-family:CMU Serif;-inkscape-font-specification:CMU Serif Medium;font-style:normal;font-stretch:normal">AbdulHakim</tspan>
    </text>
    <text
       id="text6285"
       transform="scale(1.0607086,0.942766)"
       x="803.42615"
       y="595.39722"
       style="font-size:12.91594027999999916px;-inkscape-font-specification:CMU Serif Medium;font-family:CMU Serif;font-weight:bold;font-style:normal;font-stretch:normal;font-variant:normal">
      <tspan
         id="tspan6287"
         sodipodi:role="line"
         y="595.39722"
         x="803.42615 807.84937"
         style="font-size:8.84645081000000033px;font-variant:normal;font-weight:bold;writing-mode:lr-tb;fill:#231f20;fill-opacity:1;fill-rule:nonzero;stroke:none;font-family:CMU Serif;-inkscape-font-specification:CMU Serif Medium;font-style:normal;font-stretch:normal">a,</tspan>
    </text>
    <text
       id="text6289"
       x="859.45007"
       y="566.8866"
       style="font-size:13.70004845000000060px;-inkscape-font-specification:CMU Serif Medium;font-family:CMU Serif;font-weight:bold;font-style:normal;font-stretch:normal;font-variant:normal">
      <tspan
         id="tspan6291"
         sodipodi:role="line"
         y="566.8866"
         x="859.45007 869.87091 876.12671 883.03308 894.14337 906.51733 909.89545 915.36298 922.26935 928.52515 933.99274 941.58722 953.96118 959.42871 969.06262 972.4408 977.90826 983.37592"
         style="font-size:12.51156901999999960px;font-variant:normal;font-weight:bold;writing-mode:lr-tb;fill:#231f20;fill-opacity:1;fill-rule:nonzero;stroke:none;font-family:CMU Serif;-inkscape-font-specification:CMU Serif Medium;font-style:normal;font-stretch:normal">*andMichaelMcAleer</tspan>
    </text>
    <text
       id="text6293"
       transform="scale(1.0607086,0.942766)"
       x="931.62946"
       y="595.39722"
       style="font-size:12.91594027999999916px;-inkscape-font-specification:CMU Serif Medium;font-family:CMU Serif;font-weight:bold;font-style:normal;font-stretch:normal;font-variant:normal">
      <tspan
         id="tspan6295"
         y="595.39722"
         x="931.62946"
         style="font-size:8.84645081000000033px;font-variant:normal;font-weight:bold;writing-mode:lr-tb;fill:#231f20;fill-opacity:1;fill-rule:nonzero;stroke:none;font-family:CMU Serif;-inkscape-font-specification:CMU Serif Medium;font-style:normal;font-stretch:normal">b</tspan>
    </text>
    <text
       id="text6297"
       transform="scale(1.0607081,0.9427664)"
       x="732.64301"
       y="617.64093"
       style="font-size:12.91594601000000075px;-inkscape-font-specification:CMU Serif Medium;font-family:CMU Serif;font-weight:bold;font-style:normal;font-stretch:normal;font-variant:normal">
      <tspan
         id="tspan6299"
         y="617.64093"
         x="732.64301"
         style="font-size:8.04211330000000046px;font-variant:normal;font-weight:bold;writing-mode:lr-tb;fill:#231f20;fill-opacity:1;fill-rule:nonzero;stroke:none;font-family:CMU Serif;-inkscape-font-specification:CMU Serif Medium;font-style:normal;font-stretch:normal">a</tspan>
    </text>
    <text
       id="text6301"
       x="781.39221"
       y="587.3396"
       style="font-size:13.70004845000000060px;-inkscape-font-specification:CMU Serif Medium;font-family:CMU Serif;font-weight:bold;font-style:normal;font-stretch:normal;font-variant:normal">
      <tspan
         id="tspan6303"
         sodipodi:role="line"
         y="587.3396"
         x="781.39221 790.15021 795.12061 800.80762 806.49463 810.87366 814.66113 823.41913 828.38959 834.0766 841.71423 847.40125 854.98315 862.55823 867.52869 873.2157 878.90271 884.58972 893.34772 896.41864 901.3891 905.76807 912.71649 921.47449 927.1615 930.23248 935.20288 940.17334 944.55237 948.93134 952.00232 955.78986 965.2724 970.95941 978.54132 989.79022 994.76062 999.13959 1002.9272 1007.8976 1012.2766 1021.7762 1029.9427 1035.6296 1040.0088 1043.7963 1048.1753 1053.8623 1056.9332 1060.0043 1065.6912 1072.6487 1080.8152 1086.5023 1090.8813 1094.6688 1099.0479 1104.7347 1107.8058 1110.8767 1120.3501 1126.0372 1131.7241"
         style="font-size:11.37400912999999925px;font-variant:normal;writing-mode:lr-tb;fill:#231f20;fill-opacity:1;fill-rule:nonzero;stroke:none;font-family:CMU Serif;-inkscape-font-specification:CMU Serif Medium;font-weight:bold;font-style:normal;font-stretch:normal">DepartmentofEconomics,UniversityofWesternAustralia,Australiaand</tspan>
      <tspan
         id="tspan6305"
         sodipodi:role="line"
         y="601.3205"
         x="777.12012 783.98999 789.677 794.64746 800.33447 803.40546 807.19299 816.7312 822.41821 830.00012 837.57526 842.54565 848.23267 853.91968 859.60669 868.36469 871.43561 876.40607 880.7851 887.66864 892.04767 897.73462 903.42163 909.10864 914.79565 919.76611 924.14508 927.21606 932.90308 942.42542 946.80444 951.18341 954.25439 959.94141 968.69934 971.77032 980.54767 989.30573 994.99268 998.06372 1003.0341 1008.0045 1012.3835 1016.7625 1019.8335 1023.6211 1029.308 1036.2747 1040.6536 1046.3407 1052.0276 1057.7146 1063.4016 1068.3721 1072.7511 1075.822"
         style="font-size:11.37400912999999925px;font-variant:normal;writing-mode:lr-tb;fill:#231f20;fill-opacity:1;fill-rule:nonzero;stroke:none;font-family:CMU Serif;-inkscape-font-specification:CMU Serif Medium;font-weight:bold;font-style:normal;font-stretch:normal">FacultyofEconomics,IndonesianIslamicUniversity,Indonesia</tspan>
    </text>
    <text
       id="text6307"
       transform="scale(1.0607081,0.9427664)"
       x="732.64301"
       y="647.23071"
       style="font-size:12.91594601000000075px;-inkscape-font-specification:CMU Serif Medium;font-family:CMU Serif;font-weight:bold;font-style:normal;font-stretch:normal;font-variant:normal">
      <tspan
         id="tspan6309"
         y="647.23071"
         x="732.64301"
         style="font-size:8.04211330000000046px;font-variant:normal;font-weight:bold;writing-mode:lr-tb;fill:#231f20;fill-opacity:1;fill-rule:nonzero;stroke:none;font-family:CMU Serif;-inkscape-font-specification:CMU Serif Medium;font-style:normal;font-stretch:normal">b</tspan>
    </text>
    <text
       id="text6311"
       x="781.84534"
       y="615.23596"
       style="font-size:13.70004845000000060px;-inkscape-font-specification:CMU Serif Medium;font-family:CMU Serif;font-weight:bold;font-style:normal;font-stretch:normal;font-variant:normal">
      <tspan
         id="tspan6313"
         sodipodi:role="line"
         y="615.23596"
         x="781.84534 790.60327 795.57373 801.26074 806.94775 811.32672 815.11432 823.87231 828.84271 834.52972 842.16742 847.85437 855.43628 863.01135 867.98181 873.66882 879.35583 885.04279 893.80084 896.87183 901.84229 906.22125 913.1048 921.86273 927.54974 930.62079 935.59119 940.56165 944.94061 949.31964 952.39062 956.17816 965.72546 971.41248 978.99438 990.24329 995.21381 999.59283 1003.3802 1008.3508 1012.7297 1022.2293 1030.3959 1036.0829 1040.4618 1044.2494 1048.6283 1054.3154 1057.3864 1060.4574 1066.1444 1073.1018 1081.2683 1086.9553 1091.3344 1095.1218 1099.501 1105.1879 1108.2589 1111.33"
         style="font-size:11.37400912999999925px;font-variant:normal;writing-mode:lr-tb;fill:#231f20;fill-opacity:1;fill-rule:nonzero;stroke:none;font-family:CMU Serif;-inkscape-font-specification:CMU Serif Medium;font-weight:bold;font-style:normal;font-stretch:normal">DepartmentofEconomics,UniversityofWesternAustralia,Australia</tspan>
    </text>
    <path
       id="path6315"
       style="fill:#231f20;fill-opacity:1;fill-rule:nonzero;stroke:none;-inkscape-font-specification:CMU Serif Medium;font-family:CMU Serif;font-weight:bold;font-style:normal;font-stretch:normal;font-variant:normal"
       d="M 777.12074,636.2716 L 1138.8671,636.2716 L 1138.8671,634.58878 L 777.12074,634.58878 L 777.12074,636.2716 z" />
    <text
       id="text6317"
       x="777.12036"
       y="673.68219"
       style="font-size:13.70004845000000060px;-inkscape-font-specification:CMU Serif Medium;font-family:CMU Serif;font-weight:bold;font-style:normal;font-stretch:normal;font-variant:normal">
      <tspan
         id="tspan6319"
         sodipodi:role="line"
         y="673.68219"
         x="777.12036 784.6955 790.97394 802.81543 809.09387 814.06427 820.34277 825.31317 829.10071 832.17175 835.95929 847.21613 853.49457 864.10883 867.17981 873.45825 879.14526 884.11572 888.49469 892.28223 895.35321 901.63165 914.20447 917.27551 923.55389 927.34149 932.31195 936.69092 942.96942 948.65631 952.44391 955.51489 961.79333 968.07184 973.75885 976.82977 979.90082 992.52032 998.79865 1003.7692 1010.0475 1015.0181 1021.2964 1034.3971 1040.6755 1053.8148 1057.6023 1063.8807 1068.2598 1073.2302 1085.0763 1090.0466 1096.3251 1102.6036 1108.8821 1111.953 1115.7405 1118.8115 1125.09 1131.3685 1135.7474"
         style="font-size:11.37400912999999925px;font-variant:normal;font-weight:bold;writing-mode:lr-tb;fill:#231f20;fill-opacity:1;fill-rule:nonzero;stroke:none;font-family:CMU Serif;-inkscape-font-specification:CMU Serif Medium;font-style:normal;font-stretch:normal">Thebenefitsofinvestinginternationallydependonthreeconditions,</tspan>
      <tspan
         id="tspan6321"
         sodipodi:role="line"
         y="687.59833"
         x="777.12036 783.3988 789.08582 798.43524 803.4057 806.47668 812.1637 819.06091 824.03131 828.4104 834.68878 839.06775 843.44684 847.23431 852.20477 858.48328 864.76166 871.0401 874.82764 879.20667 888.7688 893.73926 900.0177 904.39667 908.7757 913.74615 916.81708 922.50409 926.29163 929.36267 935.64105 941.91956 946.29852 953.16846 962.51788 968.2049 972.58386 978.86237 983.83276 991.48523 997.17224 1003.4506 1006.5217 1012.2086 1015.9962 1019.0672 1022.1381 1025.2091 1028.9966 1032.0676 1037.0382 1045.2706 1050.9576 1057.2361 1067.2771 1071.0646 1077.343 1081.1306 1087.4091 1091.7881 1100.5449 1105.5154 1111.7937 1117.4808 1123.7592 1129.4463 1134.4166"
         style="font-size:11.37400912999999925px;font-variant:normal;font-weight:bold;writing-mode:lr-tb;fill:#231f20;fill-opacity:1;fill-rule:nonzero;stroke:none;font-family:CMU Serif;-inkscape-font-specification:CMU Serif Medium;font-style:normal;font-stretch:normal">namely,cross-countrycorrelations,marketvolatilitiesandfuturechanges</tspan>
      <tspan
         id="tspan6323"
         sodipodi:role="line"
         y="701.57928"
         x="777.12036 780.19141 790.77716 795.74762 802.02606 806.40503 810.78406 815.75452 822.03296 827.00342 837.05457 841.43359 844.50458 848.88354 855.16205 863.85059 867.63818 876.39618 882.67462 885.74561 890.71606 899.38416 905.07117 911.34961 921.90814 928.18652 934.46503 937.53595 943.81445 946.88544 953.16388 960.54791 966.23486 971.92188 977.60889 983.29584 987.0835 994.46295 1002.038 1008.3165 1011.3875 1020.0931 1025.7802 1030.1592 1033.9467 1037.0177 1041.988 1045.0591 1054.3323 1057.4033 1063.6816 1069.3688 1074.3392 1078.7181 1082.5057 1085.5767 1091.2637 1096.9507 1100.7383 1105.7086 1114.4611 1118.2485 1124.527 1129.4974 1133.8763"
         style="font-size:11.37400912999999925px;font-variant:normal;font-weight:bold;writing-mode:lr-tb;fill:#231f20;fill-opacity:1;fill-rule:nonzero;stroke:none;font-family:CMU Serif;-inkscape-font-specification:CMU Serif Medium;font-style:normal;font-stretch:normal">incurrencyrisks(OdierandSolnik,1993).Thisarticleinvestigatesthese</tspan>
      <tspan
         id="tspan6325"
         sodipodi:role="line"
         y="715.4953"
         x="777.12036 782.09082 788.36926 794.64777 800.92621 803.99719 807.78473 810.85565 817.13416 823.4126 836.01843 839.80597 846.08441 858.672 863.05103 868.02148 873.7085 878.67889 883.05792 888.74493 900.03021 905.00067 911.27911 917.55756 923.836 927.62354 932.00256 935.07355 940.04395 944.42297 955.69232 966.94122 972.62823 978.90674 992.7796 999.05798 1004.7451 1011.0234 1015.994 1020.3729 1032.9082 1039.1866 1044.8737 1050.5607 1063.717 1073.0664 1079.3448 1085.6233 1090.5938 1093.6647 1096.7357 1101.7062 1116.208 1122.4866 1128.7649 1132.5525"
         style="font-size:11.37400912999999925px;font-variant:normal;font-weight:bold;writing-mode:lr-tb;fill:#231f20;fill-opacity:1;fill-rule:nonzero;stroke:none;font-family:CMU Serif;-inkscape-font-specification:CMU Serif Medium;font-style:normal;font-stretch:normal">conditionsforseveralcountries.Manypapershavemodelledboth</tspan>
      <tspan
         id="tspan6327"
         sodipodi:role="line"
         y="729.41144"
         x="777.12036 783.3988 789.67731 799.02673 803.99719 808.37616 812.1637 815.23474 824.75702 827.828 834.10645 837.89398 842.86444 847.24341 852.93042 857.90088 861.68842 864.7594 871.03784 877.31628 886.24493 891.93195 896.90234 901.28137 907.55981 911.93878 920.87195 926.55896 930.93793 935.31689 940.28735 948.57336 957.92279 963.6098 967.98877 974.26727 979.23761 983.02527 991.93787 997.62488 1003.9034 1014.6562 1017.7273 1024.0057 1027.7933 1032.7638 1037.1427 1043.4213 1049.1082 1052.8958 1055.9667 1062.2452 1068.5237 1074.2107 1081.8392 1084.9102 1091.1886 1094.9762 1099.9465 1104.3256 1110.0126 1114.983 1118.7706 1121.8416 1128.1201 1134.3984"
         style="font-size:11.37400912999999925px;font-variant:normal;font-weight:bold;writing-mode:lr-tb;fill:#231f20;fill-opacity:1;fill-rule:nonzero;stroke:none;font-family:CMU Serif;-inkscape-font-specification:CMU Serif Medium;font-style:normal;font-stretch:normal">domesticinteractionsacrossassetmarketsandinternationalinteractions</tspan>
      <tspan
         id="tspan6329"
         sodipodi:role="line"
         y="743.32751"
         x="777.12036 780.19141 791.81335 794.88434 801.16278 807.44122 810.51221 816.19922 819.2702 825.54865 831.82709 837.5141 845.85809 851.5451 855.92407 860.30304 865.2735 874.40112 883.75055 889.43756 893.81659 900.09503 905.06549 908.85303 918.54254 921.61353 933.17065 936.24164 940.62061 946.89905 949.97003 955.6571 959.44464 962.51562 968.79407 975.07251 983.46082 989.73926 996.0177 1005.1431 1009.5221 1015.209 1019.5881 1024.5585 1027.6295 1038.6053 1044.8839 1050.5708 1056.2579 1066.5013 1070.2888 1076.5674 1081.5378 1092.5205 1097.491 1103.178 1108.865 1118.2144 1121.2854 1127.5638 1132.5343"
         style="font-size:11.37400912999999925px;font-variant:normal;font-weight:bold;writing-mode:lr-tb;fill:#231f20;fill-opacity:1;fill-rule:nonzero;stroke:none;font-family:CMU Serif;-inkscape-font-specification:CMU Serif Medium;font-style:normal;font-stretch:normal">inindividualassetmarketsinisolation,butrarelyhavetheyexamined</tspan>
      <tspan
         id="tspan6331"
         sodipodi:role="line"
         y="757.30847"
         x="777.12036 780.19141 786.46979 790.25739 795.22784 799.60681 805.88531 811.57227 815.3598 818.43079 824.70923 830.98773 836.67474 847.66882 850.73981 857.01825 860.80579 865.77625 870.15521 875.84222 880.81268 884.60022 887.6712 893.94971 900.22809 912.5871 918.27411 923.24457 927.62354 933.90204 938.28101 950.51489 956.2019 960.58087 964.9599 969.9303 981.64667 990.99609 996.68311 1001.0621 1007.3406 1012.311 1016.0985 1020.4776 1031.4193 1038.9944 1045.2729 1058.1506 1063.8375 1068.2166 1072.004 1075.0751 1080.0454 1083.1165 1096.0134 1099.801 1102.8719 1105.943 1109.014 1121.2559 1125.0433 1131.3219 1134.3928"
         style="font-size:11.37400912999999925px;font-variant:normal;font-weight:bold;writing-mode:lr-tb;fill:#231f20;fill-opacity:1;fill-rule:nonzero;stroke:none;font-family:CMU Serif;-inkscape-font-specification:CMU Serif Medium;font-style:normal;font-stretch:normal">internationalinteractionsacrossassetmarkets.Thearticlefillsthis</tspan>
      <tspan
         id="tspan6333"
         sodipodi:role="line"
         y="771.22455"
         x="777.12036 782.80737 788.49438 802.94507 809.22357 823.07477 832.42426 838.7027 844.98114 849.9516 853.02258 856.09357 859.16449 865.44299 879.31927 883.10681 889.38531 902.55524 905.62622 911.90466 915.6922 920.66266 925.04163 931.32013 937.00714 940.79462 943.8656 950.1441 956.42255 962.10956 973.36298 976.43396 982.7124 986.50006 991.4704 995.84937 1001.5364 1006.5068 1010.2944 1013.3654 1019.6439 1025.9222 1038.5396 1044.2264 1049.1969 1053.5759 1059.8544 1064.2333 1076.7914 1081.1704 1084.9579 1091.2365 1096.2068 1102.4854 1113.6842 1119.9625 1126.2411 1132.5195"
         style="font-size:11.37400912999999925px;font-variant:normal;font-weight:bold;writing-mode:lr-tb;fill:#231f20;fill-opacity:1;fill-rule:nonzero;stroke:none;font-family:CMU Serif;-inkscape-font-specification:CMU Serif Medium;font-style:normal;font-stretch:normal">gapbymodellingtheinternationalinteractionsacrossstock,bond</tspan>
      <tspan
         id="tspan6335"
         sodipodi:role="line"
         y="785.14062"
         x="777.12036 782.80737 789.08582 801.58588 805.37341 811.65192 816.03088 821.00134 824.07233 829.75928 842.29688 847.26733 852.95435 857.92474 864.20319 869.8902 876.16864 881.85565 893.03973 902.38916 908.07617 912.4552 918.73364 923.70404 927.49164 931.87061 941.12909 948.7041 956.87067 969.41394 978.76343 985.04181 991.32025 996.29077 999.36169 1009.9304 1013.718 1019.9964 1025.6835 1035.6902 1045.0398 1050.0101 1054.9806 1065.0103 1068.7977 1075.0762 1080.0466 1084.4257 1095.6245 1101.9028 1108.1814 1112.5603 1118.8389 1125.1173 1129.4963 1134.4667"
         style="font-size:11.37400912999999925px;font-variant:normal;font-weight:bold;writing-mode:lr-tb;fill:#231f20;fill-opacity:1;fill-rule:nonzero;stroke:none;font-family:CMU Serif;-inkscape-font-specification:CMU Serif Medium;font-style:normal;font-stretch:normal">andforeignexchangemarkets.Twomodelsthatmeetthesepurposes</tspan>
      <tspan
         id="tspan6337"
         sodipodi:role="line"
         y="799.05676"
         x="777.12036 782.80737 787.1864 800.4212 804.20874 810.48718 823.65717 831.82367 840.58167 849.33966 860.58856 869.34656 873.13409 881.89209 891.24152 899.99951 908.75745 916.92401 934.59357 943.94299 950.22137 956.49988 961.47034 972.78064 979.0592 991.03247 1000.382 1006.6603 1010.4479"
         style="font-size:11.37400912999999925px;font-variant:normal;font-weight:bold;writing-mode:lr-tb;fill:#231f20;fill-opacity:1;fill-rule:nonzero;stroke:none;font-family:CMU Serif;-inkscape-font-specification:CMU Serif Medium;font-style:normal;font-stretch:normal">aretheVARMA-AGARCHmodelofHoti</tspan>
    </text>
    <text
       id="text6339"
       x="1021.7788"
       y="799.05676"
       style="font-size:13.70004845000000060px;-inkscape-font-specification:CMU Serif Medium;font-family:CMU Serif;font-weight:bold;font-style:normal;font-stretch:normal;font-variant:normal">
      <tspan
         id="tspan6341"
         sodipodi:role="line"
         y="799.05676"
         x="1021.7788 1026.7491 1038.7363 1044.4232"
         style="font-size:11.37400912999999925px;font-variant:normal;writing-mode:lr-tb;fill:#231f20;fill-opacity:1;fill-rule:nonzero;stroke:none;font-family:CMU Serif;-inkscape-font-specification:CMU Serif Medium;font-weight:bold;font-style:normal;font-stretch:normal">etal</tspan>
    </text>
    <text
       id="text6343"
       x="1047.475"
       y="799.05676"
       style="font-size:13.70004845000000060px;-inkscape-font-specification:CMU Serif Medium;font-family:CMU Serif;font-weight:bold;font-style:normal;font-stretch:normal;font-variant:normal">
      <tspan
         id="tspan6345"
         sodipodi:role="line"
         y="799.05676"
         x="1047.475 1058.8011 1062.5887 1068.2756 1073.9628 1079.6497 1085.3368 1097.3113 1102.9983 1109.2767 1123.7832 1127.5708 1133.8491"
         style="font-size:11.37400912999999925px;font-variant:normal;font-weight:bold;writing-mode:lr-tb;fill:#231f20;fill-opacity:1;fill-rule:nonzero;stroke:none;font-family:CMU Serif;-inkscape-font-specification:CMU Serif Medium;font-style:normal;font-stretch:normal">.(2002)andthe</tspan>
      <tspan
         id="tspan6347"
         sodipodi:role="line"
         y="813.03772"
         x="777.12152 785.28809 794.04608 802.80408 814.05298 822.81097 826.59851 835.94794 844.70593 853.46393 861.63043 877.05475 886.40417 892.68262 898.96112 903.93152 913.04095 919.3194 929.02826 936.60333 939.67432 945.95276 957.63617 963.32318 969.60162 981.84344 993.09241 998.06281 1006.8208 1009.8918 1014.8622 1019.8327 1030.257 1034.0446 1039.7314 1045.4185 1051.1055 1056.7925 1060.5801 1069.6088 1077.1838 1083.4624 1094.3984 1099.3688 1105.6473 1111.9258 1118.2041 1121.9917 1126.3707 1129.4417 1134.4122"
         style="font-size:11.37400912999999925px;font-variant:normal;font-weight:bold;writing-mode:lr-tb;fill:#231f20;fill-opacity:1;fill-rule:nonzero;stroke:none;font-family:CMU Serif;-inkscape-font-specification:CMU Serif Medium;font-style:normal;font-stretch:normal">VARMA-GARCHmodelofLingandMcAleer(2003).Thecountries</tspan>
      <tspan
         id="tspan6349"
         sodipodi:role="line"
         y="826.9538"
         x="777.12152 780.90912 787.1875 792.87457 803.20557 811.37213 814.44305 817.51404 827.1535 833.43201 844.88788 854.2373 860.51581 866.79425 871.76471 874.83569 877.90668 882.87708 895.69556 898.76654 911.55328 915.34082 921.61926 924.69025 935.56604 941.25305 945.63202 949.41962 952.4906 957.46106 960.53198 972.06976 977.75671 982.13574 993.62238 1002.3804 1008.6588 1013.0379 1016.8253 1021.2044 1026.8914 1029.9624 1033.0334 1038.7203 1048.3143 1053.2848 1058.9717 1065.2502 1070.9371 1077.2157 1086.8245 1093.1029 1096.174 1102.4523 1108.1394 1113.8263 1120.1049 1126.3833 1130.7622 1135.7327"
         style="font-size:11.37400912999999925px;font-variant:normal;font-weight:bold;writing-mode:lr-tb;fill:#231f20;fill-opacity:1;fill-rule:nonzero;stroke:none;font-family:CMU Serif;-inkscape-font-specification:CMU Serif Medium;font-style:normal;font-stretch:normal">thatwillbemodelledinthisarticleareAustralia,Japan,Singapore,</tspan>
      <tspan
         id="tspan6351"
         sodipodi:role="line"
         y="840.86987"
         x="777.12152 786.47095 791.44141 803.46375 811.03888 816.00934 821.69629 824.76727 830.45428 836.73273 846.82837 852.51526 858.79376 868.83478 878.18414 884.46259 893.22064"
         style="font-size:11.37400912999999925px;font-variant:normal;font-weight:bold;writing-mode:lr-tb;fill:#231f20;fill-opacity:1;fill-rule:nonzero;stroke:none;font-family:CMU Serif;-inkscape-font-specification:CMU Serif Medium;font-style:normal;font-stretch:normal">NewZealandandUSA.</tspan>
    </text>
    <text
       id="text6445"
       transform="matrix(0,-1,1,0,0,0)"
       x="-982.4353"
       y="707.94238"
       style="font-size:13.70004845000000060px;-inkscape-font-specification:CMU Serif Medium;font-family:CMU Serif;font-weight:bold;font-style:normal;font-stretch:normal;font-variant:normal">
      <tspan
         id="tspan6447"
         sodipodi:role="line"
         x="-842.69476 -838.58478 -834.47473 -830.36475 -826.2547 -822.14471 -818.03467 -813.92468 -809.81464 -805.70465 -801.59467 -797.48462 -793.37463 -789.26459 -785.1546 -781.04456 -776.93457 -772.82452 -768.71454 -764.60449 -760.49451 -756.38446 -752.27448 -748.16443 -744.05444 -739.9444 -735.83441 -731.72437 -727.61438 -723.50433 -719.39435 -715.2843 -711.17432 -707.06427 -702.95428 -698.8443 -694.73425 -690.62427 -686.51422 -682.4043 -678.29419 -674.1842 -670.07416 -665.96417 -661.85419 -657.74414 -653.63409 -649.52411 -645.41406 -641.30414 -637.19403 -633.08405 -628.974 -624.86401 -620.75403 -616.64398 -612.53394"
         style="font-size:6.85002421999999989px;font-variant:normal;font-weight:bold;writing-mode:lr-tb;fill:#000000;fill-opacity:1;fill-rule:nonzero;stroke:none;font-family:CMU Serif;-inkscape-font-specification:CMU Serif Medium;font-style:normal;font-stretch:normal">teques Universitaries de Catalunya] At: 11:49 20 May 2010</tspan>
    </text>
  </g>
</svg>
